<svg xmlns="http://www.w3.org/2000/svg" xmlns:xlink="http://www.w3.org/1999/xlink" width="1366" zoomAndPan="magnify" viewBox="0 0 1024.5 576" height="768" preserveAspectRatio="xMidYMid meet" version="1.0"><defs><filter x="0%" y="0%" width="100%" height="100%" id="f4b5963bba"><feColorMatrix values="0 0 0 0 1 0 0 0 0 1 0 0 0 0 1 0 0 0 1 0" color-interpolation-filters="sRGB"/></filter><clipPath id="9b08672701"><path d="M 0 0.140625 L 1024 0.140625 L 1024 338 L 0 338 Z M 0 0.140625 " clip-rule="nonzero"/></clipPath><mask id="b57df93b51"><g filter="url(#f4b5963bba)"><rect x="-102.45" width="1229.4" fill="#000000" y="-57.6" height="691.2" fill-opacity="0.32"/></g></mask><clipPath id="0f528b8dd1"><path d="M 0 0.167969 L 341.355469 0.167969 L 341.355469 337.660156 L 0 337.660156 Z M 0 0.167969 " clip-rule="nonzero"/></clipPath><clipPath id="ccfc052a7d"><path d="M 341.332031 0.167969 L 682.691406 0.167969 L 682.691406 337.660156 L 341.332031 337.660156 Z M 341.332031 0.167969 " clip-rule="nonzero"/></clipPath><clipPath id="bc664a05f3"><path d="M 682.667969 0.167969 L 1024 0.167969 L 1024 337.660156 L 682.667969 337.660156 Z M 682.667969 0.167969 " clip-rule="nonzero"/></clipPath><clipPath id="0a8199bed0"><rect x="0" width="1024" y="0" height="338"/></clipPath><clipPath id="a0588ae190"><path d="M 0 337 L 1024 337 L 1024 575.859375 L 0 575.859375 Z M 0 337 " clip-rule="nonzero"/></clipPath><mask id="82be7c9219"><g filter="url(#f4b5963bba)"><rect x="-102.45" width="1229.4" fill="#000000" y="-57.6" height="691.2" fill-opacity="0.32"/></g></mask><clipPath id="2958403bce"><path d="M 0 0.660156 L 341.355469 0.660156 L 341.355469 238.859375 L 0 238.859375 Z M 0 0.660156 " clip-rule="nonzero"/></clipPath><clipPath id="a2a08ab839"><path d="M 341.332031 0.660156 L 682.691406 0.660156 L 682.691406 238.859375 L 341.332031 238.859375 Z M 341.332031 0.660156 " clip-rule="nonzero"/></clipPath><clipPath id="d57abe3c2b"><path d="M 682.667969 0.660156 L 1024 0.660156 L 1024 238.859375 L 682.667969 238.859375 Z M 682.667969 0.660156 " clip-rule="nonzero"/></clipPath><clipPath id="135723c919"><rect x="0" width="1024" y="0" height="239"/></clipPath></defs><g clip-path="url(#9b08672701)"><g mask="url(#b57df93b51)"><g transform="matrix(1, 0, 0, 1, 0, 0.000000000000055289)"><g clip-path="url(#0a8199bed0)"><g clip-path="url(#0f528b8dd1)"><path fill="#333333" d="M 291.078125 84.878906 L 244.324219 57.882812 L 244.324219 111.875 Z M 291.664062 186.738281 L 244.328125 159.40625 L 244.328125 168.574219 L 291.664062 195.910156 Z M 244.328125 156.695312 L 291.664062 184.027344 L 291.664062 175.535156 L 244.328125 148.203125 Z M 291.664062 164.332031 L 244.328125 137 L 244.328125 145.492188 L 291.664062 172.820312 Z M 291.664062 153.125 L 244.328125 125.792969 L 244.328125 134.285156 L 291.664062 161.617188 Z M 291.664062 141.242188 C 275.882812 132.144531 260.105469 123.019531 244.328125 113.910156 L 244.328125 123.082031 L 291.664062 150.414062 Z M 267.996094 14.171875 C 276.28125 18.945312 284.5625 23.730469 292.839844 28.515625 L 292.839844 57.882812 L 242.566406 28.855469 Z M 267.996094 42.183594 L 291.078125 28.855469 L 267.996094 15.527344 L 244.914062 28.855469 Z M 291.664062 29.871094 L 269.167969 42.859375 L 291.664062 55.851562 Z M 97.609375 108.308594 L 50.273438 80.976562 L 50.273438 89.46875 L 97.609375 116.800781 Z M 97.609375 97.101562 L 50.273438 69.769531 L 50.273438 78.261719 L 97.609375 105.59375 Z M 97.609375 85.894531 L 50.273438 58.5625 L 50.273438 67.058594 L 97.609375 94.390625 Z M 106.140625 79.617188 L 58.800781 52.28125 L 51.445312 56.527344 L 98.785156 83.863281 Z M 115.84375 74.015625 L 68.503906 46.679688 L 61.148438 50.925781 L 108.488281 78.261719 Z M 145.539062 56.867188 L 98.199219 29.535156 L 90.257812 34.117188 L 137.597656 61.453125 Z M 98.785156 117.816406 L 117.894531 128.851562 L 125.835938 124.265625 L 98.785156 108.648438 Z M 106.433594 135.46875 L 98.785156 131.054688 L 98.785156 139.882812 Z M 98.785156 129.019531 L 108.195312 134.453125 L 116.132812 129.867188 L 98.785156 119.851562 Z M 194.636719 130.039062 L 147.300781 102.707031 L 147.300781 112.550781 L 194.636719 139.886719 Z M 194.636719 118.832031 L 147.300781 91.5 L 147.300781 101.347656 L 194.636719 128.679688 Z M 194.636719 107.628906 L 147.300781 80.296875 L 147.300781 90.144531 L 194.636719 117.476562 Z M 118.765625 129.691406 L 166.117188 157.035156 L 174.644531 152.109375 L 127.292969 124.769531 Z M 155.238281 163.3125 L 107.894531 135.976562 L 99.371094 140.902344 L 146.714844 168.238281 Z M 109.070312 135.296875 L 156.414062 162.636719 L 164.941406 157.710938 L 117.59375 130.371094 Z M 97.609375 130.714844 L 50.273438 103.382812 L 50.273438 112.554688 L 97.609375 139.882812 Z M 50.273438 100.671875 L 97.609375 128.003906 L 97.609375 119.511719 L 50.273438 92.179688 Z M 125.542969 68.414062 L 78.203125 41.078125 L 70.851562 45.324219 L 118.191406 72.65625 Z M 80.554688 39.71875 L 127.894531 67.054688 L 135.25 62.808594 L 87.910156 35.472656 Z M 135.539062 118.664062 L 98.785156 97.441406 L 98.785156 106.613281 L 127.597656 123.25 Z M 98.785156 95.410156 L 137.300781 117.648438 L 145.242188 113.058594 L 98.785156 86.234375 Z M 146.125 79.957031 L 127.011719 68.917969 L 119.070312 73.503906 L 146.125 89.125 Z M 138.472656 62.304688 L 146.125 66.71875 L 146.125 57.886719 Z M 146.125 68.75 L 136.714844 63.316406 L 128.773438 67.902344 L 146.125 77.921875 Z M 109.367188 79.109375 L 146.125 100.332031 L 146.125 91.160156 L 117.308594 74.523438 Z M 146.125 102.363281 L 107.605469 80.121094 L 99.664062 84.707031 L 146.125 111.535156 Z M 184.347656 146.507812 L 137 119.167969 L 128.46875 124.089844 L 175.820312 151.429688 Z M 138.171875 118.492188 L 185.519531 145.828125 L 194.050781 140.90625 L 146.710938 113.566406 Z M 194.636719 96.425781 L 147.300781 69.09375 L 147.300781 78.941406 L 194.636719 106.273438 Z M 147.300781 67.734375 L 194.636719 95.070312 L 194.636719 85.214844 L 147.300781 57.882812 Z M 147.882812 56.867188 L 195.226562 84.203125 L 242.566406 56.867188 L 195.226562 29.535156 Z M 26.015625 182.582031 C 26.015625 192.144531 26 201.707031 26.019531 211.269531 L 0.589844 225.949219 C 0.578125 206.601562 0.585938 187.25 0.585938 167.898438 Z M 24.257812 210.929688 L 1.761719 197.941406 L 1.761719 223.921875 Z M 1.761719 196.585938 L 24.84375 209.917969 L 24.84375 183.257812 L 1.757812 169.929688 Z M 26.019531 69.855469 L 26.019531 99.902344 L 0 84.878906 Z M 24.839844 71.890625 L 2.34375 84.878906 L 24.839844 97.867188 Z M 146.710938 0.167969 C 155.191406 5.050781 163.667969 9.953125 172.140625 14.851562 C 163.664062 19.746094 155.183594 24.632812 146.710938 29.535156 C 138.242188 24.632812 129.757812 19.746094 121.285156 14.851562 Z M 146.710938 1.523438 L 123.628906 14.851562 L 146.710938 28.179688 L 169.796875 14.851562 Z M 146.125 169.253906 L 98.785156 141.917969 L 98.785156 196.585938 L 146.125 223.917969 Z M 194.640625 251.933594 L 194.640625 196.585938 L 242.566406 168.914062 L 195.222656 141.578125 C 179.234375 150.78125 163.28125 160.039062 147.300781 169.25 L 147.300781 224.601562 Z M 195.8125 208.8125 L 195.8125 217.980469 L 243.148438 190.648438 L 243.148438 181.480469 Z M 243.148438 169.933594 L 195.8125 197.265625 L 195.8125 206.777344 L 243.148438 179.445312 Z M 195.8125 229.183594 L 243.148438 201.851562 L 243.148438 192.683594 L 195.8125 220.015625 Z M 195.8125 240.390625 L 243.148438 213.058594 L 243.148438 203.886719 L 195.8125 231.21875 Z M 243.148438 215.089844 L 195.8125 242.425781 L 195.8125 251.933594 L 243.148438 224.601562 Z M 89.667969 146.503906 L 89.671875 201.171875 L 97.617188 196.585938 L 97.613281 141.917969 Z M 79.964844 152.109375 L 79.964844 206.777344 L 87.324219 202.527344 L 87.324219 147.859375 Z M 70.261719 157.710938 L 70.261719 212.378906 L 77.621094 208.132812 L 77.621094 153.460938 Z M 60.558594 163.3125 L 60.558594 217.980469 L 67.917969 213.734375 L 67.917969 159.066406 Z M 50.273438 223.921875 L 58.21875 219.335938 L 58.214844 164.667969 L 50.273438 169.25 Z M 106.433594 247.515625 L 59.097656 220.183594 L 50.859375 224.9375 L 98.199219 252.269531 Z M 60.859375 219.167969 L 108.195312 246.5 L 116.136719 241.914062 L 68.796875 214.582031 Z M 89.96875 202.359375 L 137.304688 229.691406 L 145.539062 224.9375 L 98.203125 197.601562 Z M 125.835938 236.3125 L 78.5 208.976562 L 70.558594 213.566406 L 117.898438 240.898438 Z M 80.261719 207.964844 L 127.597656 235.296875 L 135.542969 230.707031 L 88.203125 203.375 Z M 72.769531 266.953125 L 50.273438 253.964844 L 50.273438 279.945312 Z M 75.117188 266.953125 L 49.097656 281.980469 L 49.097656 251.933594 Z M 242.566406 280.957031 L 195.8125 253.964844 L 195.8125 307.953125 Z M 107.902344 313.898438 L 155.242188 286.5625 L 146.710938 281.636719 L 99.371094 308.972656 Z M 137.011719 330.703125 L 184.355469 303.371094 L 175.824219 298.445312 L 128.484375 325.78125 Z M 185.527344 304.046875 L 138.183594 331.382812 L 146.714844 336.308594 L 194.054688 308.972656 Z M 117.605469 319.5 L 164.945312 292.164062 L 156.414062 287.238281 L 109.074219 314.574219 Z M 166.121094 292.84375 L 118.78125 320.179688 L 127.308594 325.101562 L 174.648438 297.769531 Z M 243.152344 57.882812 L 195.816406 85.214844 L 195.816406 140.5625 L 243.148438 167.898438 C 243.148438 131.222656 243.152344 94.558594 243.152344 57.882812 Z M 196.398438 252.953125 L 244.914062 280.960938 C 212.183594 299.867188 179.457031 318.777344 146.714844 337.660156 C 130.148438 328.105469 113.589844 318.539062 97.027344 308.972656 C 113.585938 299.40625 130.160156 289.859375 146.710938 280.285156 L 194.640625 307.957031 C 194.640625 289.734375 194.652344 271.511719 194.640625 253.289062 C 178.65625 244.078125 162.683594 234.847656 146.710938 225.613281 L 98.199219 253.628906 C 81.816406 244.207031 65.460938 234.734375 49.097656 225.273438 L 49.097656 169.25 L 0.00390625 140.902344 L 49.097656 112.554688 L 49.097656 56.53125 C 65.464844 47.078125 81.816406 37.601562 98.203125 28.179688 L 146.714844 56.191406 L 195.222656 28.179688 C 227.984375 47.035156 260.691406 65.980469 293.425781 84.878906 L 244.914062 112.890625 L 292.25 140.226562 L 341.351562 111.878906 C 341.351562 131.226562 341.363281 150.578125 341.351562 169.929688 C 325.179688 160.59375 309.015625 151.25 292.839844 141.917969 L 292.839844 197.945312 C 276.671875 188.609375 260.492188 179.277344 244.324219 169.933594 L 244.324219 225.273438 C 228.355469 234.503906 212.386719 243.742188 196.398438 252.953125 Z M 97.027344 140.902344 L 49.6875 113.566406 L 2.34375 140.902344 L 49.6875 168.238281 C 65.46875 159.125 81.25 150.015625 97.027344 140.902344 Z M 340.179688 113.90625 L 293.425781 140.902344 L 340.179688 167.898438 L 340.179688 113.90625 " fill-opacity="1" fill-rule="nonzero"/></g><g clip-path="url(#ccfc052a7d)"><path fill="#333333" d="M 632.410156 84.878906 L 585.65625 57.882812 L 585.65625 111.875 Z M 632.996094 186.738281 L 585.660156 159.40625 L 585.660156 168.574219 L 632.996094 195.910156 Z M 585.664062 156.695312 L 632.996094 184.027344 L 632.996094 175.535156 L 585.660156 148.203125 Z M 632.996094 164.332031 L 585.660156 137 L 585.660156 145.492188 L 632.996094 172.820312 Z M 632.996094 153.125 L 585.660156 125.792969 L 585.660156 134.285156 L 632.996094 161.617188 Z M 632.996094 141.242188 C 617.214844 132.144531 601.4375 123.019531 585.660156 113.910156 L 585.660156 123.082031 L 632.996094 150.414062 Z M 609.332031 14.171875 C 617.617188 18.945312 625.898438 23.730469 634.175781 28.515625 L 634.175781 57.882812 L 583.902344 28.855469 Z M 609.332031 42.183594 L 632.414062 28.855469 L 609.332031 15.527344 L 586.246094 28.855469 Z M 632.996094 29.871094 L 610.503906 42.859375 L 632.996094 55.851562 Z M 438.945312 108.308594 L 391.609375 80.976562 L 391.609375 89.46875 L 438.945312 116.800781 Z M 438.945312 97.101562 L 391.609375 69.769531 L 391.609375 78.261719 L 438.945312 105.59375 Z M 438.945312 85.894531 L 391.609375 58.5625 L 391.609375 67.058594 L 438.945312 94.390625 Z M 447.472656 79.617188 L 400.132812 52.28125 L 392.78125 56.527344 L 440.121094 83.863281 Z M 457.175781 74.015625 L 409.835938 46.679688 L 402.484375 50.925781 L 449.820312 78.261719 Z M 486.875 56.867188 L 439.53125 29.535156 L 431.589844 34.117188 L 478.933594 61.453125 Z M 440.121094 117.816406 L 459.230469 128.851562 L 467.167969 124.265625 L 440.121094 108.648438 Z M 447.765625 135.46875 L 440.121094 131.054688 L 440.121094 139.882812 Z M 440.121094 129.019531 L 449.527344 134.453125 L 457.46875 129.867188 L 440.121094 119.851562 Z M 535.96875 130.039062 L 488.632812 102.707031 L 488.632812 112.550781 L 535.96875 139.886719 Z M 535.96875 118.832031 L 488.632812 91.5 L 488.632812 101.347656 L 535.96875 128.679688 Z M 535.96875 107.628906 L 488.632812 80.296875 L 488.632812 90.144531 L 535.96875 117.476562 Z M 460.101562 129.691406 L 507.449219 157.035156 L 515.980469 152.109375 L 468.625 124.769531 Z M 496.574219 163.3125 L 449.230469 135.976562 L 440.707031 140.902344 L 488.046875 168.238281 Z M 450.402344 135.296875 L 497.746094 162.636719 L 506.273438 157.710938 L 458.925781 130.371094 Z M 438.945312 130.714844 L 391.609375 103.382812 L 391.609375 112.554688 L 438.945312 139.882812 Z M 391.609375 100.671875 L 438.945312 128.003906 L 438.945312 119.511719 L 391.609375 92.179688 Z M 466.878906 68.414062 L 419.539062 41.078125 L 412.183594 45.324219 L 459.523438 72.65625 Z M 421.886719 39.71875 L 469.226562 67.054688 L 476.582031 62.808594 L 429.242188 35.472656 Z M 476.875 118.664062 L 440.121094 97.441406 L 440.121094 106.613281 L 468.933594 123.25 Z M 440.121094 95.410156 L 478.632812 117.648438 L 486.578125 113.058594 L 440.121094 86.234375 Z M 487.457031 79.957031 L 468.34375 68.917969 L 460.402344 73.503906 L 487.457031 89.125 Z M 479.804688 62.304688 L 487.457031 66.71875 L 487.457031 57.886719 Z M 487.457031 68.75 L 478.046875 63.316406 L 470.105469 67.902344 L 487.457031 77.921875 Z M 450.699219 79.109375 L 487.457031 100.332031 L 487.457031 91.160156 L 458.640625 74.523438 Z M 487.457031 102.363281 L 448.941406 80.121094 L 441 84.707031 L 487.457031 111.535156 Z M 525.683594 146.507812 L 478.332031 119.167969 L 469.800781 124.089844 L 517.152344 151.429688 Z M 479.507812 118.492188 L 526.855469 145.828125 L 535.386719 140.90625 L 488.042969 113.566406 Z M 535.96875 96.425781 L 488.632812 69.09375 L 488.632812 78.941406 L 535.96875 106.273438 Z M 488.632812 67.734375 L 535.96875 95.070312 L 535.96875 85.214844 L 488.632812 57.882812 Z M 489.21875 56.867188 L 536.558594 84.203125 L 583.902344 56.867188 L 536.558594 29.535156 Z M 367.351562 182.582031 C 367.351562 192.144531 367.335938 201.707031 367.351562 211.269531 L 341.921875 225.949219 C 341.914062 206.601562 341.921875 187.25 341.921875 167.898438 Z M 365.59375 210.929688 L 343.09375 197.941406 L 343.09375 223.921875 Z M 343.09375 196.585938 L 366.179688 209.917969 L 366.179688 183.257812 L 343.09375 169.929688 Z M 367.351562 69.855469 L 367.351562 99.902344 L 341.332031 84.878906 Z M 366.171875 71.890625 L 343.679688 84.878906 L 366.171875 97.867188 Z M 488.046875 0.167969 C 496.527344 5.050781 505 9.953125 513.476562 14.851562 C 505 19.746094 496.515625 24.632812 488.046875 29.535156 C 479.574219 24.632812 471.089844 19.746094 462.617188 14.851562 Z M 488.046875 1.523438 L 464.960938 14.851562 L 488.046875 28.179688 L 511.128906 14.851562 Z M 487.457031 169.253906 L 440.121094 141.917969 L 440.121094 196.585938 L 487.457031 223.917969 Z M 535.972656 251.933594 L 535.972656 196.585938 L 583.898438 168.914062 L 536.558594 141.578125 C 520.570312 150.78125 504.613281 160.039062 488.632812 169.25 L 488.632812 224.601562 Z M 537.148438 208.8125 L 537.148438 217.980469 L 584.484375 190.648438 L 584.484375 181.480469 Z M 584.484375 169.933594 L 537.148438 197.265625 L 537.148438 206.777344 L 584.484375 179.445312 Z M 537.148438 229.183594 L 584.484375 201.851562 L 584.484375 192.683594 L 537.148438 220.015625 Z M 537.148438 240.390625 L 584.484375 213.058594 L 584.484375 203.886719 L 537.148438 231.21875 Z M 584.484375 215.089844 L 537.144531 242.425781 L 537.144531 251.933594 L 584.484375 224.601562 Z M 431.003906 146.503906 L 431.003906 201.171875 L 438.949219 196.585938 L 438.945312 141.917969 Z M 421.296875 152.109375 L 421.296875 206.777344 L 428.65625 202.527344 L 428.65625 147.859375 Z M 411.59375 157.710938 L 411.59375 212.378906 L 418.953125 208.132812 L 418.953125 153.460938 Z M 401.894531 163.3125 L 401.894531 217.980469 L 409.25 213.734375 L 409.25 159.066406 Z M 391.609375 223.921875 L 399.550781 219.335938 L 399.546875 164.667969 L 391.609375 169.25 Z M 447.765625 247.515625 L 400.429688 220.183594 L 392.195312 224.9375 L 439.535156 252.269531 Z M 402.191406 219.167969 L 449.527344 246.5 L 457.46875 241.914062 L 410.128906 214.582031 Z M 431.300781 202.359375 L 478.636719 229.691406 L 486.871094 224.9375 L 439.535156 197.601562 Z M 467.171875 236.3125 L 419.832031 208.976562 L 411.890625 213.566406 L 459.230469 240.898438 Z M 421.59375 207.964844 L 468.933594 235.296875 L 476.875 230.707031 L 429.539062 203.375 Z M 414.105469 266.953125 L 391.609375 253.964844 L 391.609375 279.945312 Z M 416.449219 266.953125 L 390.429688 281.980469 L 390.429688 251.933594 Z M 583.902344 280.957031 L 537.144531 253.964844 L 537.148438 307.953125 Z M 449.234375 313.898438 L 496.574219 286.5625 L 488.046875 281.636719 L 440.707031 308.972656 Z M 478.34375 330.703125 L 525.6875 303.371094 L 517.15625 298.445312 L 469.816406 325.78125 Z M 526.859375 304.046875 L 479.519531 331.382812 L 488.046875 336.308594 L 535.390625 308.972656 Z M 458.941406 319.5 L 506.28125 292.164062 L 497.75 287.238281 L 450.410156 314.574219 Z M 507.453125 292.84375 L 460.113281 320.179688 L 468.640625 325.101562 L 515.984375 297.769531 Z M 584.484375 57.882812 L 537.148438 85.214844 L 537.148438 140.5625 L 584.484375 167.898438 C 584.484375 131.222656 584.484375 94.558594 584.484375 57.882812 Z M 537.730469 252.953125 L 586.246094 280.960938 C 553.519531 299.867188 520.789062 318.777344 488.046875 337.660156 C 471.480469 328.105469 454.921875 318.539062 438.363281 308.972656 C 454.921875 299.40625 471.496094 289.859375 488.046875 280.285156 L 535.972656 307.957031 C 535.972656 289.734375 535.984375 271.511719 535.972656 253.289062 C 519.988281 244.078125 504.015625 234.847656 488.046875 225.613281 L 439.535156 253.628906 C 423.148438 244.207031 406.792969 234.734375 390.429688 225.273438 L 390.429688 169.25 L 341.335938 140.902344 L 390.429688 112.554688 L 390.429688 56.53125 C 406.796875 47.078125 423.152344 37.601562 439.535156 28.179688 L 488.046875 56.191406 L 536.558594 28.179688 C 569.316406 47.035156 602.023438 65.980469 634.757812 84.878906 L 586.246094 112.890625 L 633.585938 140.226562 L 682.6875 111.878906 C 682.6875 131.226562 682.695312 150.578125 682.683594 169.929688 C 666.515625 160.59375 650.347656 151.25 634.175781 141.917969 L 634.175781 197.945312 C 618.003906 188.609375 601.828125 179.277344 585.660156 169.933594 L 585.660156 225.273438 C 569.691406 234.503906 553.71875 243.742188 537.730469 252.953125 Z M 438.359375 140.902344 L 391.019531 113.566406 L 343.679688 140.902344 L 391.019531 168.238281 C 406.800781 159.125 422.582031 150.015625 438.359375 140.902344 Z M 681.515625 113.90625 L 634.757812 140.902344 L 681.511719 167.898438 L 681.515625 113.90625 " fill-opacity="1" fill-rule="nonzero"/></g><g clip-path="url(#bc664a05f3)"><path fill="#333333" d="M 973.746094 84.878906 L 926.992188 57.882812 L 926.992188 111.875 Z M 974.332031 186.738281 L 926.996094 159.40625 L 926.996094 168.574219 L 974.332031 195.910156 Z M 926.996094 156.695312 L 974.332031 184.027344 L 974.332031 175.535156 L 926.996094 148.203125 Z M 974.332031 164.332031 L 926.996094 137 L 926.996094 145.492188 L 974.332031 172.820312 Z M 974.332031 153.125 L 926.996094 125.792969 L 926.996094 134.285156 L 974.332031 161.617188 Z M 974.332031 141.242188 C 958.550781 132.144531 942.773438 123.019531 926.996094 113.910156 L 926.996094 123.082031 L 974.332031 150.414062 Z M 950.664062 14.171875 C 958.949219 18.945312 967.230469 23.730469 975.507812 28.515625 L 975.507812 57.882812 L 925.234375 28.855469 Z M 950.664062 42.183594 L 973.746094 28.855469 L 950.664062 15.527344 L 927.582031 28.855469 Z M 974.332031 29.871094 L 951.835938 42.859375 L 974.332031 55.851562 Z M 780.277344 108.308594 L 732.941406 80.976562 L 732.941406 89.46875 L 780.277344 116.800781 Z M 780.277344 97.101562 L 732.941406 69.769531 L 732.941406 78.261719 L 780.277344 105.59375 Z M 780.277344 85.894531 L 732.941406 58.5625 L 732.941406 67.058594 L 780.277344 94.390625 Z M 788.808594 79.617188 L 741.46875 52.28125 L 734.113281 56.527344 L 781.453125 83.863281 Z M 798.507812 74.015625 L 751.167969 46.679688 L 743.816406 50.925781 L 791.15625 78.261719 Z M 828.207031 56.867188 L 780.867188 29.535156 L 772.925781 34.117188 L 820.265625 61.453125 Z M 781.453125 117.816406 L 800.5625 128.851562 L 808.503906 124.265625 L 781.453125 108.648438 Z M 789.097656 135.46875 L 781.453125 131.054688 L 781.453125 139.882812 Z M 781.453125 129.019531 L 790.859375 134.453125 L 798.800781 129.867188 L 781.453125 119.851562 Z M 877.300781 130.039062 L 829.96875 102.707031 L 829.96875 112.550781 L 877.300781 139.886719 Z M 877.300781 118.832031 L 829.96875 91.5 L 829.96875 101.347656 L 877.300781 128.679688 Z M 877.300781 107.628906 L 829.96875 80.296875 L 829.96875 90.144531 L 877.300781 117.476562 Z M 801.433594 129.691406 L 848.785156 157.035156 L 857.3125 152.109375 L 809.960938 124.769531 Z M 837.90625 163.3125 L 790.5625 135.976562 L 782.039062 140.902344 L 829.378906 168.238281 Z M 791.734375 135.296875 L 839.082031 162.636719 L 847.609375 157.710938 L 800.257812 130.371094 Z M 780.277344 130.714844 L 732.941406 103.382812 L 732.941406 112.554688 L 780.277344 139.882812 Z M 732.941406 100.671875 L 780.277344 128.003906 L 780.277344 119.511719 L 732.941406 92.179688 Z M 808.210938 68.414062 L 760.871094 41.078125 L 753.515625 45.324219 L 800.859375 72.65625 Z M 763.21875 39.71875 L 810.558594 67.054688 L 817.917969 62.808594 L 770.574219 35.472656 Z M 818.207031 118.664062 L 781.453125 97.441406 L 781.453125 106.613281 L 810.265625 123.25 Z M 781.453125 95.410156 L 819.96875 117.648438 L 827.910156 113.058594 L 781.453125 86.234375 Z M 828.789062 79.957031 L 809.679688 68.917969 L 801.734375 73.503906 L 828.789062 89.125 Z M 821.140625 62.304688 L 828.789062 66.71875 L 828.789062 57.886719 Z M 828.789062 68.75 L 819.382812 63.316406 L 811.441406 67.902344 L 828.789062 77.921875 Z M 792.03125 79.109375 L 828.789062 100.332031 L 828.789062 91.160156 L 799.976562 74.523438 Z M 828.789062 102.363281 L 790.273438 80.121094 L 782.332031 84.707031 L 828.789062 111.535156 Z M 867.015625 146.507812 L 819.664062 119.167969 L 811.132812 124.089844 L 858.484375 151.429688 Z M 820.839844 118.492188 L 868.1875 145.828125 L 876.71875 140.90625 L 829.378906 113.566406 Z M 877.300781 96.425781 L 829.96875 69.09375 L 829.96875 78.941406 L 877.300781 106.273438 Z M 829.96875 67.734375 L 877.300781 95.070312 L 877.300781 85.214844 L 829.96875 57.882812 Z M 830.550781 56.867188 L 877.890625 84.203125 L 925.234375 56.867188 L 877.890625 29.535156 Z M 708.683594 182.582031 C 708.683594 192.144531 708.667969 201.707031 708.683594 211.269531 L 683.257812 225.949219 C 683.246094 206.601562 683.253906 187.25 683.253906 167.898438 Z M 706.925781 210.929688 L 684.429688 197.941406 L 684.429688 223.921875 Z M 684.429688 196.585938 L 707.511719 209.917969 L 707.511719 183.257812 L 684.425781 169.929688 Z M 708.683594 69.855469 L 708.683594 99.902344 L 682.667969 84.878906 Z M 707.507812 71.890625 L 685.011719 84.878906 L 707.507812 97.867188 Z M 829.378906 0.167969 C 837.859375 5.050781 846.332031 9.953125 854.808594 14.851562 C 846.332031 19.746094 837.851562 24.632812 829.378906 29.535156 C 820.90625 24.632812 812.425781 19.746094 803.949219 14.851562 Z M 829.378906 1.523438 L 806.296875 14.851562 L 829.378906 28.179688 L 852.460938 14.851562 Z M 828.792969 169.253906 L 781.453125 141.917969 L 781.453125 196.585938 L 828.792969 223.917969 Z M 877.304688 251.933594 L 877.308594 196.585938 L 925.234375 168.914062 L 877.890625 141.578125 C 861.902344 150.78125 845.949219 160.039062 829.96875 169.25 L 829.96875 224.601562 Z M 878.480469 208.8125 L 878.480469 217.980469 L 925.816406 190.648438 L 925.816406 181.480469 Z M 925.816406 169.933594 L 878.480469 197.265625 L 878.480469 206.777344 L 925.816406 179.445312 Z M 878.480469 229.183594 L 925.816406 201.851562 L 925.816406 192.683594 L 878.480469 220.015625 Z M 878.480469 240.390625 L 925.816406 213.058594 L 925.816406 203.886719 L 878.480469 231.21875 Z M 925.816406 215.089844 L 878.480469 242.425781 L 878.480469 251.933594 L 925.816406 224.601562 Z M 772.335938 146.503906 L 772.335938 201.171875 L 780.28125 196.585938 L 780.28125 141.917969 Z M 762.632812 152.109375 L 762.632812 206.777344 L 769.992188 202.527344 L 769.988281 147.859375 Z M 752.925781 157.710938 L 752.925781 212.378906 L 760.289062 208.132812 L 760.285156 153.460938 Z M 743.226562 163.3125 L 743.226562 217.980469 L 750.585938 213.734375 L 750.582031 159.066406 Z M 732.941406 223.921875 L 740.882812 219.335938 L 740.882812 164.667969 L 732.941406 169.25 Z M 789.101562 247.515625 L 741.761719 220.183594 L 733.527344 224.9375 L 780.867188 252.269531 Z M 743.523438 219.167969 L 790.863281 246.5 L 798.800781 241.914062 L 751.464844 214.582031 Z M 772.632812 202.359375 L 819.972656 229.691406 L 828.203125 224.9375 L 780.867188 197.601562 Z M 808.503906 236.3125 L 761.167969 208.976562 L 753.226562 213.566406 L 800.5625 240.898438 Z M 762.929688 207.964844 L 810.265625 235.296875 L 818.210938 230.707031 L 770.871094 203.375 Z M 755.4375 266.953125 L 732.941406 253.964844 L 732.941406 279.945312 Z M 757.785156 266.953125 L 731.765625 281.980469 L 731.765625 251.933594 Z M 925.234375 280.957031 L 878.480469 253.964844 L 878.480469 307.953125 Z M 790.570312 313.898438 L 837.90625 286.5625 L 829.378906 281.636719 L 782.039062 308.972656 Z M 819.675781 330.703125 L 867.019531 303.371094 L 858.492188 298.445312 L 811.148438 325.78125 Z M 868.191406 304.046875 L 820.851562 331.382812 L 829.378906 336.308594 L 876.722656 308.972656 Z M 800.273438 319.5 L 847.613281 292.164062 L 839.082031 287.238281 L 791.742188 314.574219 Z M 848.789062 292.84375 L 801.449219 320.179688 L 809.976562 325.101562 L 857.316406 297.769531 Z M 925.820312 57.882812 L 878.480469 85.214844 L 878.480469 140.5625 L 925.816406 167.898438 C 925.816406 131.222656 925.820312 94.558594 925.820312 57.882812 Z M 879.066406 252.953125 L 927.578125 280.960938 C 894.851562 299.867188 862.125 318.777344 829.378906 337.660156 C 812.816406 328.105469 796.253906 318.539062 779.695312 308.972656 C 796.253906 299.40625 812.828125 289.859375 829.378906 280.285156 L 877.308594 307.957031 C 877.308594 289.734375 877.316406 271.511719 877.304688 253.289062 C 861.324219 244.078125 845.351562 234.847656 829.378906 225.613281 L 780.867188 253.628906 C 764.484375 244.207031 748.125 234.734375 731.761719 225.273438 L 731.761719 169.25 L 682.667969 140.902344 L 731.761719 112.554688 L 731.761719 56.53125 C 748.132812 47.078125 764.484375 37.601562 780.867188 28.179688 L 829.378906 56.191406 L 877.890625 28.179688 C 910.648438 47.035156 943.359375 65.980469 976.09375 84.878906 L 927.578125 112.890625 L 974.917969 140.226562 L 1024.019531 111.878906 C 1024.019531 131.226562 1024.03125 150.578125 1024.015625 169.929688 C 1007.847656 160.59375 991.683594 151.25 975.507812 141.917969 L 975.507812 197.945312 C 959.335938 188.609375 943.160156 179.277344 926.992188 169.933594 L 926.992188 225.273438 C 911.023438 234.503906 895.050781 243.742188 879.066406 252.953125 Z M 779.695312 140.902344 L 732.351562 113.566406 L 685.011719 140.902344 L 732.355469 168.238281 C 748.132812 159.125 763.914062 150.015625 779.695312 140.902344 Z M 1022.847656 113.90625 L 976.09375 140.902344 L 1022.847656 167.898438 L 1022.847656 113.90625 " fill-opacity="1" fill-rule="nonzero"/></g></g></g></g></g><g clip-path="url(#a0588ae190)"><g mask="url(#82be7c9219)"><g transform="matrix(1, 0, 0, 1, 0, 337)"><g clip-path="url(#135723c919)"><g clip-path="url(#2958403bce)"><path fill="#333333" d="M 291.078125 85.371094 L 244.324219 58.375 L 244.324219 112.367188 Z M 291.664062 187.234375 L 244.328125 159.898438 L 244.328125 169.070312 L 291.664062 196.402344 Z M 244.328125 157.1875 L 291.664062 184.519531 L 291.664062 176.027344 L 244.328125 148.695312 Z M 291.664062 164.824219 L 244.328125 137.492188 L 244.328125 145.984375 L 291.664062 173.316406 Z M 291.664062 153.621094 L 244.328125 126.285156 L 244.328125 134.78125 L 291.664062 162.113281 Z M 291.664062 141.734375 C 275.882812 132.636719 260.105469 123.511719 244.328125 114.402344 L 244.328125 123.578125 L 291.664062 150.90625 Z M 267.996094 14.667969 C 276.28125 19.4375 284.5625 24.226562 292.839844 29.011719 L 292.839844 58.375 L 242.566406 29.347656 Z M 267.996094 42.675781 L 291.078125 29.347656 L 267.996094 16.019531 L 244.914062 29.347656 Z M 291.664062 30.367188 L 269.167969 43.355469 L 291.664062 56.34375 Z M 97.609375 108.800781 L 50.273438 81.46875 L 50.273438 89.960938 L 97.609375 117.292969 Z M 97.609375 97.597656 L 50.273438 70.265625 L 50.273438 78.757812 L 97.609375 106.085938 Z M 97.609375 86.390625 L 50.273438 59.058594 L 50.273438 67.550781 L 97.609375 94.882812 Z M 106.140625 80.109375 L 58.800781 52.777344 L 51.445312 57.019531 L 98.785156 84.355469 Z M 115.84375 74.507812 L 68.503906 47.171875 L 61.148438 51.417969 L 108.488281 78.753906 Z M 145.539062 57.363281 L 98.199219 30.027344 L 90.257812 34.613281 L 137.597656 61.945312 Z M 98.785156 118.3125 L 117.894531 129.34375 L 125.835938 124.757812 L 98.785156 109.140625 Z M 106.433594 135.964844 L 98.785156 131.550781 L 98.785156 140.378906 Z M 98.785156 129.515625 L 108.195312 134.945312 L 116.132812 130.363281 L 98.785156 120.34375 Z M 194.636719 130.53125 L 147.300781 103.199219 L 147.300781 113.046875 L 194.636719 140.378906 Z M 194.636719 119.328125 L 147.300781 91.992188 L 147.300781 101.84375 L 194.636719 129.175781 Z M 194.636719 108.121094 L 147.300781 80.789062 L 147.300781 90.636719 L 194.636719 117.96875 Z M 118.765625 130.1875 L 166.117188 157.527344 L 174.644531 152.605469 L 127.292969 125.261719 Z M 155.238281 163.808594 L 107.894531 136.46875 L 99.371094 141.394531 L 146.714844 168.730469 Z M 109.070312 135.789062 L 156.414062 163.128906 L 164.941406 158.207031 L 117.59375 130.863281 Z M 97.609375 131.210938 L 50.273438 103.878906 L 50.273438 113.046875 L 97.609375 140.378906 Z M 50.273438 101.164062 L 97.609375 128.496094 L 97.609375 120.003906 L 50.273438 92.671875 Z M 125.542969 68.90625 L 78.203125 41.570312 L 70.851562 45.816406 L 118.191406 73.152344 Z M 80.554688 40.214844 L 127.894531 67.550781 L 135.25 63.304688 L 87.910156 35.96875 Z M 135.539062 119.160156 L 98.785156 97.9375 L 98.785156 107.105469 L 127.597656 123.742188 Z M 98.785156 95.902344 L 137.300781 118.140625 L 145.242188 113.554688 L 98.785156 86.730469 Z M 146.125 80.449219 L 127.011719 69.414062 L 119.070312 73.996094 L 146.125 89.617188 Z M 138.472656 62.796875 L 146.125 67.214844 L 146.125 58.378906 Z M 146.125 69.242188 L 136.714844 63.8125 L 128.773438 68.398438 L 146.125 78.414062 Z M 109.367188 79.601562 L 146.125 100.824219 L 146.125 91.652344 L 117.308594 75.015625 Z M 146.125 102.855469 L 107.605469 80.617188 L 99.664062 85.203125 L 146.125 112.027344 Z M 184.347656 147 L 137 119.660156 L 128.46875 124.585938 L 175.820312 151.925781 Z M 138.171875 118.984375 L 185.519531 146.324219 L 194.050781 141.398438 L 146.710938 114.0625 Z M 194.636719 96.917969 L 147.300781 69.585938 L 147.300781 79.433594 L 194.636719 106.765625 Z M 147.300781 68.230469 L 194.636719 95.5625 L 194.636719 85.710938 L 147.300781 58.375 Z M 147.882812 57.363281 L 195.226562 84.695312 L 242.566406 57.363281 L 195.226562 30.027344 Z M 26.015625 183.074219 C 26.015625 192.636719 26 202.199219 26.019531 211.761719 L 0.589844 226.445312 C 0.578125 207.09375 0.585938 187.742188 0.585938 168.394531 Z M 24.257812 211.421875 L 1.761719 198.433594 L 1.761719 224.414062 Z M 1.761719 197.078125 L 24.84375 210.410156 L 24.84375 183.75 L 1.757812 170.421875 Z M 26.019531 70.351562 L 26.019531 100.398438 L 0 85.375 Z M 24.839844 72.382812 L 2.34375 85.371094 L 24.839844 98.359375 Z M 146.710938 0.660156 C 155.191406 5.546875 163.667969 10.449219 172.140625 15.34375 C 163.664062 20.238281 155.183594 25.125 146.710938 30.027344 C 138.242188 25.125 129.757812 20.238281 121.285156 15.34375 Z M 146.710938 2.015625 L 123.628906 15.34375 L 146.710938 28.671875 L 169.796875 15.34375 Z M 146.125 169.746094 L 98.785156 142.414062 L 98.785156 197.078125 L 146.125 224.414062 Z M 194.640625 252.425781 L 194.640625 197.078125 L 242.566406 169.40625 L 195.222656 142.074219 C 179.234375 151.273438 163.28125 160.53125 147.300781 169.746094 L 147.300781 225.09375 Z M 195.8125 209.304688 L 195.8125 218.476562 L 243.148438 191.140625 L 243.148438 181.972656 Z M 243.148438 170.425781 L 195.8125 197.757812 L 195.8125 207.269531 L 243.148438 179.9375 Z M 195.8125 229.679688 L 243.148438 202.347656 L 243.148438 193.175781 L 195.8125 220.511719 Z M 195.8125 240.882812 L 243.148438 213.550781 L 243.148438 204.382812 L 195.8125 231.714844 Z M 243.148438 215.585938 L 195.8125 242.917969 L 195.8125 252.425781 L 243.148438 225.09375 Z M 89.667969 147 L 89.671875 201.664062 L 97.617188 197.078125 L 97.613281 142.414062 Z M 79.964844 152.601562 L 79.964844 207.269531 L 87.324219 203.019531 L 87.324219 148.351562 Z M 70.261719 158.203125 L 70.261719 212.875 L 77.621094 208.625 L 77.621094 153.953125 Z M 60.558594 163.804688 L 60.558594 218.476562 L 67.917969 214.226562 L 67.917969 159.558594 Z M 50.273438 224.414062 L 58.21875 219.828125 L 58.214844 165.160156 L 50.273438 169.746094 Z M 106.433594 248.011719 L 59.097656 220.675781 L 50.859375 225.429688 L 98.199219 252.765625 Z M 60.859375 219.660156 L 108.195312 246.992188 L 116.136719 242.410156 L 68.796875 215.074219 Z M 89.96875 202.851562 L 137.304688 230.183594 L 145.539062 225.429688 L 98.203125 198.097656 Z M 125.835938 236.804688 L 78.5 209.472656 L 70.558594 214.058594 L 117.898438 241.390625 Z M 80.261719 208.457031 L 127.597656 235.789062 L 135.542969 231.203125 L 88.203125 203.867188 Z M 72.769531 267.445312 L 50.273438 254.460938 L 50.273438 280.4375 Z M 75.117188 267.449219 L 49.097656 282.472656 L 49.097656 252.425781 Z M 242.566406 281.453125 L 195.8125 254.457031 L 195.8125 308.449219 Z M 107.902344 314.390625 L 155.242188 287.054688 L 146.710938 282.128906 L 99.371094 309.464844 Z M 137.011719 331.195312 L 184.355469 303.863281 L 175.824219 298.9375 L 128.484375 326.273438 Z M 185.527344 304.539062 L 138.183594 331.875 L 146.714844 336.800781 L 194.054688 309.464844 Z M 117.605469 319.992188 L 164.945312 292.660156 L 156.414062 287.734375 L 109.074219 315.066406 Z M 166.121094 293.335938 L 118.78125 320.671875 L 127.308594 325.597656 L 174.648438 298.261719 Z M 243.152344 58.375 L 195.816406 85.710938 L 195.816406 141.058594 L 243.148438 168.390625 C 243.148438 131.714844 243.152344 95.050781 243.152344 58.375 Z M 196.398438 253.445312 L 244.914062 281.453125 C 212.183594 300.363281 179.457031 319.269531 146.714844 338.152344 C 130.148438 328.601562 113.589844 319.03125 97.027344 309.464844 C 113.585938 299.898438 130.160156 290.355469 146.710938 280.777344 L 194.640625 308.449219 C 194.640625 290.226562 194.652344 272.003906 194.640625 253.78125 C 178.65625 244.574219 162.683594 235.339844 146.710938 226.105469 L 98.199219 254.121094 C 81.816406 244.699219 65.460938 235.226562 49.097656 225.769531 L 49.097656 169.742188 L 0.00390625 141.394531 L 49.097656 113.046875 L 49.097656 57.023438 C 65.464844 47.574219 81.816406 38.09375 98.203125 28.671875 L 146.714844 56.683594 L 195.222656 28.671875 C 227.984375 47.527344 260.691406 66.472656 293.425781 85.375 L 244.914062 113.386719 L 292.25 140.71875 L 341.351562 112.371094 C 341.351562 131.722656 341.363281 151.074219 341.351562 170.421875 C 325.179688 161.089844 309.015625 151.742188 292.839844 142.414062 L 292.839844 198.4375 C 276.671875 189.101562 260.492188 179.769531 244.324219 170.425781 L 244.324219 225.769531 C 228.355469 235 212.386719 244.234375 196.398438 253.445312 Z M 97.027344 141.394531 L 49.6875 114.0625 L 2.34375 141.394531 L 49.6875 168.730469 C 65.46875 159.621094 81.25 150.507812 97.027344 141.394531 Z M 340.179688 114.398438 L 293.425781 141.394531 L 340.179688 168.390625 L 340.179688 114.398438 " fill-opacity="1" fill-rule="nonzero"/></g><g clip-path="url(#a2a08ab839)"><path fill="#333333" d="M 632.410156 85.371094 L 585.65625 58.375 L 585.65625 112.367188 Z M 632.996094 187.234375 L 585.660156 159.898438 L 585.660156 169.070312 L 632.996094 196.402344 Z M 585.664062 157.1875 L 632.996094 184.519531 L 632.996094 176.027344 L 585.660156 148.695312 Z M 632.996094 164.824219 L 585.660156 137.492188 L 585.660156 145.984375 L 632.996094 173.316406 Z M 632.996094 153.621094 L 585.660156 126.285156 L 585.660156 134.78125 L 632.996094 162.113281 Z M 632.996094 141.734375 C 617.214844 132.636719 601.4375 123.511719 585.660156 114.402344 L 585.660156 123.578125 L 632.996094 150.90625 Z M 609.332031 14.667969 C 617.617188 19.4375 625.898438 24.226562 634.175781 29.011719 L 634.175781 58.375 L 583.902344 29.347656 Z M 609.332031 42.675781 L 632.414062 29.347656 L 609.332031 16.019531 L 586.246094 29.347656 Z M 632.996094 30.367188 L 610.503906 43.355469 L 632.996094 56.34375 Z M 438.945312 108.800781 L 391.609375 81.46875 L 391.609375 89.960938 L 438.945312 117.292969 Z M 438.945312 97.597656 L 391.609375 70.265625 L 391.609375 78.757812 L 438.945312 106.085938 Z M 438.945312 86.390625 L 391.609375 59.058594 L 391.609375 67.550781 L 438.945312 94.882812 Z M 447.472656 80.109375 L 400.132812 52.777344 L 392.78125 57.019531 L 440.121094 84.355469 Z M 457.175781 74.507812 L 409.835938 47.171875 L 402.484375 51.417969 L 449.820312 78.753906 Z M 486.875 57.363281 L 439.53125 30.027344 L 431.589844 34.613281 L 478.933594 61.945312 Z M 440.121094 118.3125 L 459.230469 129.34375 L 467.167969 124.757812 L 440.121094 109.140625 Z M 447.765625 135.964844 L 440.121094 131.550781 L 440.121094 140.378906 Z M 440.121094 129.515625 L 449.527344 134.945312 L 457.46875 130.363281 L 440.121094 120.34375 Z M 535.96875 130.53125 L 488.632812 103.199219 L 488.632812 113.046875 L 535.96875 140.378906 Z M 535.96875 119.328125 L 488.632812 91.992188 L 488.632812 101.84375 L 535.96875 129.175781 Z M 535.96875 108.121094 L 488.632812 80.789062 L 488.632812 90.636719 L 535.96875 117.96875 Z M 460.101562 130.1875 L 507.449219 157.527344 L 515.980469 152.605469 L 468.625 125.261719 Z M 496.574219 163.808594 L 449.230469 136.46875 L 440.707031 141.394531 L 488.046875 168.730469 Z M 450.402344 135.789062 L 497.746094 163.128906 L 506.273438 158.207031 L 458.925781 130.863281 Z M 438.945312 131.210938 L 391.609375 103.878906 L 391.609375 113.046875 L 438.945312 140.378906 Z M 391.609375 101.164062 L 438.945312 128.496094 L 438.945312 120.003906 L 391.609375 92.671875 Z M 466.878906 68.90625 L 419.539062 41.570312 L 412.183594 45.816406 L 459.523438 73.152344 Z M 421.886719 40.214844 L 469.226562 67.550781 L 476.582031 63.304688 L 429.242188 35.96875 Z M 476.875 119.160156 L 440.121094 97.9375 L 440.121094 107.105469 L 468.933594 123.742188 Z M 440.121094 95.902344 L 478.632812 118.140625 L 486.578125 113.554688 L 440.121094 86.730469 Z M 487.457031 80.449219 L 468.34375 69.414062 L 460.402344 73.996094 L 487.457031 89.617188 Z M 479.804688 62.796875 L 487.457031 67.214844 L 487.457031 58.378906 Z M 487.457031 69.242188 L 478.046875 63.8125 L 470.105469 68.398438 L 487.457031 78.414062 Z M 450.699219 79.601562 L 487.457031 100.824219 L 487.457031 91.652344 L 458.640625 75.015625 Z M 487.457031 102.855469 L 448.941406 80.617188 L 441 85.203125 L 487.457031 112.027344 Z M 525.683594 147 L 478.332031 119.660156 L 469.800781 124.585938 L 517.152344 151.925781 Z M 479.507812 118.984375 L 526.855469 146.324219 L 535.386719 141.398438 L 488.042969 114.0625 Z M 535.96875 96.917969 L 488.632812 69.585938 L 488.632812 79.433594 L 535.96875 106.765625 Z M 488.632812 68.230469 L 535.96875 95.5625 L 535.96875 85.710938 L 488.632812 58.375 Z M 489.21875 57.363281 L 536.558594 84.695312 L 583.902344 57.363281 L 536.558594 30.027344 Z M 367.351562 183.074219 C 367.351562 192.636719 367.335938 202.199219 367.351562 211.761719 L 341.921875 226.445312 C 341.914062 207.09375 341.921875 187.742188 341.921875 168.394531 Z M 365.59375 211.421875 L 343.09375 198.433594 L 343.09375 224.414062 Z M 343.09375 197.078125 L 366.179688 210.410156 L 366.179688 183.75 L 343.09375 170.421875 Z M 367.351562 70.351562 L 367.351562 100.398438 L 341.332031 85.375 Z M 366.171875 72.382812 L 343.679688 85.371094 L 366.171875 98.359375 Z M 488.046875 0.660156 C 496.527344 5.546875 505 10.449219 513.476562 15.34375 C 505 20.238281 496.515625 25.125 488.046875 30.027344 C 479.574219 25.125 471.089844 20.238281 462.617188 15.34375 Z M 488.046875 2.015625 L 464.960938 15.34375 L 488.046875 28.671875 L 511.128906 15.34375 Z M 487.457031 169.746094 L 440.121094 142.414062 L 440.121094 197.078125 L 487.457031 224.414062 Z M 535.972656 252.425781 L 535.972656 197.078125 L 583.898438 169.40625 L 536.558594 142.074219 C 520.570312 151.273438 504.613281 160.53125 488.632812 169.746094 L 488.632812 225.09375 Z M 537.148438 209.304688 L 537.148438 218.476562 L 584.484375 191.140625 L 584.484375 181.972656 Z M 584.484375 170.425781 L 537.148438 197.757812 L 537.148438 207.269531 L 584.484375 179.9375 Z M 537.148438 229.679688 L 584.484375 202.347656 L 584.484375 193.175781 L 537.148438 220.511719 Z M 537.148438 240.882812 L 584.484375 213.550781 L 584.484375 204.382812 L 537.148438 231.714844 Z M 584.484375 215.585938 L 537.144531 242.917969 L 537.144531 252.425781 L 584.484375 225.09375 Z M 431.003906 147 L 431.003906 201.664062 L 438.949219 197.078125 L 438.945312 142.414062 Z M 421.296875 152.601562 L 421.296875 207.269531 L 428.65625 203.019531 L 428.65625 148.351562 Z M 411.59375 158.203125 L 411.59375 212.875 L 418.953125 208.625 L 418.953125 153.953125 Z M 401.894531 163.804688 L 401.894531 218.476562 L 409.25 214.226562 L 409.25 159.558594 Z M 391.609375 224.414062 L 399.550781 219.828125 L 399.546875 165.160156 L 391.609375 169.746094 Z M 447.765625 248.011719 L 400.429688 220.675781 L 392.195312 225.429688 L 439.535156 252.765625 Z M 402.191406 219.660156 L 449.527344 246.992188 L 457.46875 242.410156 L 410.128906 215.074219 Z M 431.300781 202.851562 L 478.636719 230.183594 L 486.871094 225.429688 L 439.535156 198.097656 Z M 467.171875 236.804688 L 419.832031 209.472656 L 411.890625 214.058594 L 459.230469 241.390625 Z M 421.59375 208.457031 L 468.933594 235.789062 L 476.875 231.203125 L 429.539062 203.867188 Z M 414.105469 267.445312 L 391.609375 254.460938 L 391.609375 280.4375 Z M 416.449219 267.449219 L 390.429688 282.472656 L 390.429688 252.425781 Z M 583.902344 281.453125 L 537.144531 254.457031 L 537.148438 308.449219 Z M 449.234375 314.390625 L 496.574219 287.054688 L 488.046875 282.128906 L 440.707031 309.464844 Z M 478.34375 331.195312 L 525.6875 303.863281 L 517.15625 298.9375 L 469.816406 326.273438 Z M 526.859375 304.539062 L 479.519531 331.875 L 488.046875 336.800781 L 535.390625 309.464844 Z M 458.941406 319.992188 L 506.28125 292.660156 L 497.75 287.734375 L 450.410156 315.066406 Z M 507.453125 293.335938 L 460.113281 320.671875 L 468.640625 325.597656 L 515.984375 298.261719 Z M 584.484375 58.375 L 537.148438 85.710938 L 537.148438 141.058594 L 584.484375 168.390625 C 584.484375 131.714844 584.484375 95.050781 584.484375 58.375 Z M 537.730469 253.445312 L 586.246094 281.453125 C 553.519531 300.363281 520.789062 319.269531 488.046875 338.152344 C 471.480469 328.601562 454.921875 319.03125 438.363281 309.464844 C 454.921875 299.898438 471.496094 290.355469 488.046875 280.777344 L 535.972656 308.449219 C 535.972656 290.226562 535.984375 272.003906 535.972656 253.78125 C 519.988281 244.574219 504.015625 235.339844 488.046875 226.105469 L 439.535156 254.121094 C 423.148438 244.699219 406.792969 235.226562 390.429688 225.769531 L 390.429688 169.742188 L 341.335938 141.394531 L 390.429688 113.046875 L 390.429688 57.023438 C 406.796875 47.574219 423.152344 38.09375 439.535156 28.671875 L 488.046875 56.683594 L 536.558594 28.671875 C 569.316406 47.527344 602.023438 66.472656 634.757812 85.375 L 586.246094 113.386719 L 633.585938 140.71875 L 682.6875 112.371094 C 682.6875 131.722656 682.695312 151.074219 682.683594 170.421875 C 666.515625 161.089844 650.347656 151.742188 634.175781 142.414062 L 634.175781 198.4375 C 618.003906 189.101562 601.828125 179.769531 585.660156 170.425781 L 585.660156 225.769531 C 569.691406 235 553.71875 244.234375 537.730469 253.445312 Z M 438.359375 141.394531 L 391.019531 114.0625 L 343.679688 141.394531 L 391.019531 168.730469 C 406.800781 159.621094 422.582031 150.507812 438.359375 141.394531 Z M 681.515625 114.398438 L 634.757812 141.394531 L 681.511719 168.390625 L 681.515625 114.398438 " fill-opacity="1" fill-rule="nonzero"/></g><g clip-path="url(#d57abe3c2b)"><path fill="#333333" d="M 973.746094 85.371094 L 926.992188 58.375 L 926.992188 112.367188 Z M 974.332031 187.234375 L 926.996094 159.898438 L 926.996094 169.070312 L 974.332031 196.402344 Z M 926.996094 157.1875 L 974.332031 184.519531 L 974.332031 176.027344 L 926.996094 148.695312 Z M 974.332031 164.824219 L 926.996094 137.492188 L 926.996094 145.984375 L 974.332031 173.316406 Z M 974.332031 153.621094 L 926.996094 126.285156 L 926.996094 134.78125 L 974.332031 162.113281 Z M 974.332031 141.734375 C 958.550781 132.636719 942.773438 123.511719 926.996094 114.402344 L 926.996094 123.578125 L 974.332031 150.90625 Z M 950.664062 14.667969 C 958.949219 19.4375 967.230469 24.226562 975.507812 29.011719 L 975.507812 58.375 L 925.234375 29.347656 Z M 950.664062 42.675781 L 973.746094 29.347656 L 950.664062 16.019531 L 927.582031 29.347656 Z M 974.332031 30.367188 L 951.835938 43.355469 L 974.332031 56.34375 Z M 780.277344 108.800781 L 732.941406 81.46875 L 732.941406 89.960938 L 780.277344 117.292969 Z M 780.277344 97.597656 L 732.941406 70.265625 L 732.941406 78.757812 L 780.277344 106.085938 Z M 780.277344 86.390625 L 732.941406 59.058594 L 732.941406 67.550781 L 780.277344 94.882812 Z M 788.808594 80.109375 L 741.46875 52.777344 L 734.113281 57.019531 L 781.453125 84.355469 Z M 798.507812 74.507812 L 751.167969 47.171875 L 743.816406 51.417969 L 791.15625 78.753906 Z M 828.207031 57.363281 L 780.867188 30.027344 L 772.925781 34.613281 L 820.265625 61.945312 Z M 781.453125 118.3125 L 800.5625 129.34375 L 808.503906 124.757812 L 781.453125 109.140625 Z M 789.097656 135.964844 L 781.453125 131.550781 L 781.453125 140.378906 Z M 781.453125 129.515625 L 790.859375 134.945312 L 798.800781 130.363281 L 781.453125 120.34375 Z M 877.300781 130.53125 L 829.96875 103.199219 L 829.96875 113.046875 L 877.300781 140.378906 Z M 877.300781 119.328125 L 829.96875 91.992188 L 829.96875 101.84375 L 877.300781 129.175781 Z M 877.300781 108.121094 L 829.96875 80.789062 L 829.96875 90.636719 L 877.300781 117.96875 Z M 801.433594 130.1875 L 848.785156 157.527344 L 857.3125 152.605469 L 809.960938 125.261719 Z M 837.90625 163.808594 L 790.5625 136.46875 L 782.039062 141.394531 L 829.378906 168.730469 Z M 791.734375 135.789062 L 839.082031 163.128906 L 847.609375 158.207031 L 800.257812 130.863281 Z M 780.277344 131.210938 L 732.941406 103.878906 L 732.941406 113.046875 L 780.277344 140.378906 Z M 732.941406 101.164062 L 780.277344 128.496094 L 780.277344 120.003906 L 732.941406 92.671875 Z M 808.210938 68.90625 L 760.871094 41.570312 L 753.515625 45.816406 L 800.859375 73.152344 Z M 763.21875 40.214844 L 810.558594 67.550781 L 817.917969 63.304688 L 770.574219 35.96875 Z M 818.207031 119.160156 L 781.453125 97.9375 L 781.453125 107.105469 L 810.265625 123.742188 Z M 781.453125 95.902344 L 819.96875 118.140625 L 827.910156 113.554688 L 781.453125 86.730469 Z M 828.789062 80.449219 L 809.679688 69.414062 L 801.734375 73.996094 L 828.789062 89.617188 Z M 821.140625 62.796875 L 828.789062 67.214844 L 828.789062 58.378906 Z M 828.789062 69.242188 L 819.382812 63.8125 L 811.441406 68.398438 L 828.789062 78.414062 Z M 792.03125 79.601562 L 828.789062 100.824219 L 828.789062 91.652344 L 799.976562 75.015625 Z M 828.789062 102.855469 L 790.273438 80.617188 L 782.332031 85.203125 L 828.789062 112.027344 Z M 867.015625 147 L 819.664062 119.660156 L 811.132812 124.585938 L 858.484375 151.925781 Z M 820.839844 118.984375 L 868.1875 146.324219 L 876.71875 141.398438 L 829.378906 114.0625 Z M 877.300781 96.917969 L 829.96875 69.585938 L 829.96875 79.433594 L 877.300781 106.765625 Z M 829.96875 68.230469 L 877.300781 95.5625 L 877.300781 85.710938 L 829.96875 58.375 Z M 830.550781 57.363281 L 877.890625 84.695312 L 925.234375 57.363281 L 877.890625 30.027344 Z M 708.683594 183.074219 C 708.683594 192.636719 708.667969 202.199219 708.683594 211.761719 L 683.257812 226.445312 C 683.246094 207.09375 683.253906 187.742188 683.253906 168.394531 Z M 706.925781 211.421875 L 684.429688 198.433594 L 684.429688 224.414062 Z M 684.429688 197.078125 L 707.511719 210.410156 L 707.511719 183.75 L 684.425781 170.421875 Z M 708.683594 70.351562 L 708.683594 100.398438 L 682.667969 85.375 Z M 707.507812 72.382812 L 685.011719 85.371094 L 707.507812 98.359375 Z M 829.378906 0.660156 C 837.859375 5.546875 846.332031 10.449219 854.808594 15.34375 C 846.332031 20.238281 837.851562 25.125 829.378906 30.027344 C 820.90625 25.125 812.425781 20.238281 803.949219 15.34375 Z M 829.378906 2.015625 L 806.296875 15.34375 L 829.378906 28.671875 L 852.460938 15.34375 Z M 828.792969 169.746094 L 781.453125 142.414062 L 781.453125 197.078125 L 828.792969 224.414062 Z M 877.304688 252.425781 L 877.308594 197.078125 L 925.234375 169.40625 L 877.890625 142.074219 C 861.902344 151.273438 845.949219 160.53125 829.96875 169.746094 L 829.96875 225.09375 Z M 878.480469 209.304688 L 878.480469 218.476562 L 925.816406 191.140625 L 925.816406 181.972656 Z M 925.816406 170.425781 L 878.480469 197.757812 L 878.480469 207.269531 L 925.816406 179.9375 Z M 878.480469 229.679688 L 925.816406 202.347656 L 925.816406 193.175781 L 878.480469 220.511719 Z M 878.480469 240.882812 L 925.816406 213.550781 L 925.816406 204.382812 L 878.480469 231.714844 Z M 925.816406 215.585938 L 878.480469 242.917969 L 878.480469 252.425781 L 925.816406 225.09375 Z M 772.335938 147 L 772.335938 201.664062 L 780.28125 197.078125 L 780.28125 142.414062 Z M 762.632812 152.601562 L 762.632812 207.269531 L 769.992188 203.019531 L 769.988281 148.351562 Z M 752.925781 158.203125 L 752.925781 212.875 L 760.289062 208.625 L 760.285156 153.953125 Z M 743.226562 163.804688 L 743.226562 218.476562 L 750.585938 214.226562 L 750.582031 159.558594 Z M 732.941406 224.414062 L 740.882812 219.828125 L 740.882812 165.160156 L 732.941406 169.746094 Z M 789.101562 248.011719 L 741.761719 220.675781 L 733.527344 225.429688 L 780.867188 252.765625 Z M 743.523438 219.660156 L 790.863281 246.992188 L 798.800781 242.410156 L 751.464844 215.074219 Z M 772.632812 202.851562 L 819.972656 230.183594 L 828.203125 225.429688 L 780.867188 198.097656 Z M 808.503906 236.804688 L 761.167969 209.472656 L 753.226562 214.058594 L 800.5625 241.390625 Z M 762.929688 208.457031 L 810.265625 235.789062 L 818.210938 231.203125 L 770.871094 203.867188 Z M 755.4375 267.445312 L 732.941406 254.460938 L 732.941406 280.4375 Z M 757.785156 267.449219 L 731.765625 282.472656 L 731.765625 252.425781 Z M 925.234375 281.453125 L 878.480469 254.457031 L 878.480469 308.449219 Z M 790.570312 314.390625 L 837.90625 287.054688 L 829.378906 282.128906 L 782.039062 309.464844 Z M 819.675781 331.195312 L 867.019531 303.863281 L 858.492188 298.9375 L 811.148438 326.273438 Z M 868.191406 304.539062 L 820.851562 331.875 L 829.378906 336.800781 L 876.722656 309.464844 Z M 800.273438 319.992188 L 847.613281 292.660156 L 839.082031 287.734375 L 791.742188 315.066406 Z M 848.789062 293.335938 L 801.449219 320.671875 L 809.976562 325.597656 L 857.316406 298.261719 Z M 925.820312 58.375 L 878.480469 85.710938 L 878.480469 141.058594 L 925.816406 168.390625 C 925.816406 131.714844 925.820312 95.050781 925.820312 58.375 Z M 879.066406 253.445312 L 927.578125 281.453125 C 894.851562 300.363281 862.125 319.269531 829.378906 338.152344 C 812.816406 328.601562 796.253906 319.03125 779.695312 309.464844 C 796.253906 299.898438 812.828125 290.355469 829.378906 280.777344 L 877.308594 308.449219 C 877.308594 290.226562 877.316406 272.003906 877.304688 253.78125 C 861.324219 244.574219 845.351562 235.339844 829.378906 226.105469 L 780.867188 254.121094 C 764.484375 244.699219 748.125 235.226562 731.761719 225.769531 L 731.761719 169.742188 L 682.667969 141.394531 L 731.761719 113.046875 L 731.761719 57.023438 C 748.132812 47.574219 764.484375 38.09375 780.867188 28.671875 L 829.378906 56.683594 L 877.890625 28.671875 C 910.648438 47.527344 943.359375 66.472656 976.09375 85.375 L 927.578125 113.386719 L 974.917969 140.71875 L 1024.019531 112.371094 C 1024.019531 131.722656 1024.03125 151.074219 1024.015625 170.421875 C 1007.847656 161.089844 991.683594 151.742188 975.507812 142.414062 L 975.507812 198.4375 C 959.335938 189.101562 943.160156 179.769531 926.992188 170.425781 L 926.992188 225.769531 C 911.023438 235 895.050781 244.234375 879.066406 253.445312 Z M 779.695312 141.394531 L 732.351562 114.0625 L 685.011719 141.394531 L 732.355469 168.730469 C 748.132812 159.621094 763.914062 150.507812 779.695312 141.394531 Z M 1022.847656 114.398438 L 976.09375 141.394531 L 1022.847656 168.390625 L 1022.847656 114.398438 " fill-opacity="1" fill-rule="nonzero"/></g></g></g></g></g></svg>