<svg xmlns="http://www.w3.org/2000/svg" xmlns:xlink="http://www.w3.org/1999/xlink" width="500" zoomAndPan="magnify" viewBox="0 0 375 374.999991" height="500" preserveAspectRatio="xMidYMid meet" version="1.0"><defs><clipPath id="90e19a3877"><path d="M 62.726562 27.789062 L 312.476562 27.789062 L 312.476562 347.289062 L 62.726562 347.289062 Z M 62.726562 27.789062 " clip-rule="nonzero"/></clipPath></defs><g clip-path="url(#90e19a3877)"><path fill="#ffffff" d="M 187.460938 27.789062 C 256.308594 27.789062 312.121094 83.601562 312.121094 152.449219 C 312.121094 221.292969 256.308594 277.105469 187.460938 277.105469 C 118.613281 277.105469 62.800781 221.292969 62.800781 152.449219 C 62.800781 83.601562 118.613281 27.789062 187.460938 27.789062 Z M 281.050781 250.167969 C 263.738281 266.753906 242.023438 278.78125 217.839844 284.332031 L 239.140625 333.789062 L 262.140625 296.726562 L 304.875 305.480469 Z M 163.589844 285.65625 C 139.160156 281.308594 117.003906 270.40625 98.996094 254.832031 L 70.050781 317 L 113.019531 309.492188 L 134.933594 347.207031 Z M 189.570312 108.550781 C 188.839844 106.625 186.085938 106.625 185.351562 108.550781 L 174.523438 137.074219 C 174.199219 137.933594 173.4375 138.484375 172.523438 138.527344 L 142.046875 140.015625 C 139.976562 140.113281 139.128906 142.726562 140.746094 144.027344 L 164.527344 163.140625 C 165.242188 163.714844 165.53125 164.605469 165.289062 165.492188 L 157.285156 194.933594 C 156.742188 196.9375 158.960938 198.550781 160.699219 197.414062 L 186.226562 180.703125 C 186.992188 180.199219 187.929688 180.199219 188.695312 180.703125 L 214.222656 197.414062 C 215.960938 198.550781 218.183594 196.9375 217.636719 194.933594 L 209.632812 165.492188 C 209.390625 164.605469 209.679688 163.714844 210.394531 163.140625 L 234.175781 144.027344 C 235.792969 142.726562 234.945312 140.117188 232.875 140.015625 L 202.398438 138.53125 C 201.484375 138.484375 200.726562 137.933594 200.398438 137.078125 Z M 199.242188 64.308594 C 192.148438 59 182.773438 59 175.679688 64.308594 C 157.214844 78.128906 161.402344 76.605469 138.375 77.886719 C 129.527344 78.378906 122.34375 84.40625 120.324219 93.03125 C 115.0625 115.488281 117.292969 111.628906 100.472656 127.414062 C 94.015625 133.476562 92.386719 142.710938 96.382812 150.617188 C 106.789062 171.203125 106.015625 166.8125 103.277344 189.714844 C 102.226562 198.511719 106.914062 206.632812 115.058594 210.121094 C 136.261719 219.199219 132.847656 216.335938 145.46875 235.636719 C 150.320312 243.054688 159.132812 246.257812 167.613281 243.695312 C 189.691406 237.023438 185.234375 237.023438 207.3125 243.695312 C 215.792969 246.257812 224.605469 243.050781 229.453125 235.636719 C 242.078125 216.335938 238.664062 219.199219 259.863281 210.121094 C 268.007812 206.632812 272.699219 198.511719 271.644531 189.714844 C 268.910156 166.8125 268.136719 171.199219 278.539062 150.617188 C 282.535156 142.710938 280.90625 133.476562 274.449219 127.414062 C 257.632812 111.628906 259.859375 115.488281 254.597656 93.03125 C 252.578125 84.40625 245.394531 78.378906 236.550781 77.886719 C 213.519531 76.605469 217.707031 78.128906 199.242188 64.308594 Z M 199.242188 64.308594 " fill-opacity="1" fill-rule="evenodd"/></g></svg>