<svg xmlns="http://www.w3.org/2000/svg" xmlns:xlink="http://www.w3.org/1999/xlink" width="500" zoomAndPan="magnify" viewBox="0 0 375 374.999991" height="500" preserveAspectRatio="xMidYMid meet" version="1.0"><defs><clipPath id="b931f53575"><path d="M 65 32.144531 L 310 32.144531 L 310 342.644531 L 65 342.644531 Z M 65 32.144531 " clip-rule="nonzero"/></clipPath></defs><g clip-path="url(#b931f53575)"><path fill="#ffffff" d="M 99.050781 252.480469 L 66.105469 318.691406 C 65.789062 319.390625 65.632812 320.125 65.632812 320.890625 C 65.632812 321.65625 65.789062 322.386719 66.105469 323.085938 C 66.425781 323.785156 66.875 324.386719 67.453125 324.890625 C 68.035156 325.394531 68.691406 325.757812 69.425781 325.980469 C 88.121094 331.4375 107.105469 335.582031 126.375 338.40625 C 145.648438 341.230469 165.019531 342.714844 184.496094 342.855469 L 187.496094 342.855469 C 207.492188 342.855469 227.390625 341.441406 247.183594 338.617188 C 266.980469 335.789062 286.476562 331.578125 305.671875 325.980469 C 306.410156 325.757812 307.066406 325.394531 307.644531 324.890625 C 308.226562 324.386719 308.675781 323.785156 308.996094 323.085938 C 309.308594 322.386719 309.464844 321.65625 309.464844 320.890625 C 309.464844 320.125 309.308594 319.390625 308.996094 318.691406 L 275.941406 252.480469 C 266.941406 234.320312 243.800781 220.335938 215.78125 214.980469 C 220.253906 213.246094 224.53125 211.125 228.617188 208.617188 C 232.707031 206.109375 236.535156 203.253906 240.101562 200.050781 C 243.671875 196.847656 246.921875 193.347656 249.859375 189.558594 C 252.792969 185.765625 255.363281 181.738281 257.566406 177.480469 C 259.09375 177.695312 260.632812 177.804688 262.175781 177.800781 C 263.167969 177.800781 264.160156 177.753906 265.148438 177.65625 C 266.136719 177.558594 267.117188 177.414062 268.09375 177.21875 C 269.066406 177.027344 270.03125 176.785156 270.980469 176.496094 C 271.933594 176.207031 272.867188 175.875 273.785156 175.496094 C 274.703125 175.113281 275.601562 174.691406 276.476562 174.222656 C 277.355469 173.753906 278.207031 173.246094 279.03125 172.695312 C 279.859375 172.140625 280.65625 171.550781 281.425781 170.921875 C 282.195312 170.292969 282.929688 169.625 283.632812 168.925781 C 284.335938 168.222656 285.003906 167.488281 285.636719 166.71875 C 286.265625 165.953125 286.859375 165.15625 287.410156 164.332031 C 287.964844 163.503906 288.476562 162.652344 288.945312 161.777344 C 289.414062 160.902344 289.839844 160.003906 290.222656 159.089844 C 290.601562 158.171875 290.9375 157.238281 291.226562 156.285156 C 291.519531 155.335938 291.761719 154.375 291.957031 153.398438 C 292.152344 152.425781 292.296875 151.441406 292.398438 150.453125 C 292.496094 149.464844 292.546875 148.472656 292.550781 147.480469 L 292.550781 134.945312 C 292.558594 133.492188 292.464844 132.046875 292.261719 130.605469 C 292.058594 129.167969 291.753906 127.75 291.34375 126.355469 C 290.9375 124.960938 290.425781 123.605469 289.820312 122.285156 C 289.210938 120.964844 288.511719 119.695312 287.71875 118.476562 C 286.925781 117.261719 286.046875 116.105469 285.082031 115.019531 C 284.121094 113.929688 283.085938 112.917969 281.972656 111.980469 C 280.863281 111.042969 279.691406 110.191406 278.457031 109.425781 C 277.21875 108.660156 275.9375 107.988281 274.601562 107.410156 C 274.226562 104.8125 273.734375 102.238281 273.125 99.6875 C 272.519531 97.132812 271.800781 94.613281 270.964844 92.125 C 270.132812 89.636719 269.191406 87.191406 268.140625 84.789062 C 267.089844 82.382812 265.933594 80.03125 264.671875 77.730469 C 263.410156 75.429688 262.050781 73.191406 260.589844 71.011719 C 259.128906 68.832031 257.570312 66.722656 255.921875 64.683594 C 254.269531 62.644531 252.535156 60.679688 250.707031 58.796875 C 248.882812 56.910156 246.976562 55.113281 244.992188 53.398438 C 243.003906 51.683594 240.945312 50.0625 238.816406 48.53125 C 236.683594 47 234.488281 45.566406 232.230469 44.234375 C 229.96875 42.898438 227.65625 41.667969 225.285156 40.542969 C 222.917969 39.414062 220.503906 38.394531 218.042969 37.484375 C 215.582031 36.570312 213.085938 35.773438 210.554688 35.082031 C 208.023438 34.394531 205.464844 33.820312 202.882812 33.363281 C 200.296875 32.902344 197.699219 32.558594 195.085938 32.332031 C 192.472656 32.101562 189.855469 31.992188 187.230469 32 C 184.605469 32.003906 181.988281 32.128906 179.375 32.367188 C 176.761719 32.609375 174.167969 32.964844 171.585938 33.4375 C 169.003906 33.910156 166.449219 34.496094 163.921875 35.199219 C 161.394531 35.898438 158.902344 36.710938 156.445312 37.636719 C 153.988281 38.558594 151.578125 39.589844 149.214844 40.730469 C 146.851562 41.867188 144.542969 43.109375 142.292969 44.453125 C 140.039062 45.800781 137.851562 47.242188 135.726562 48.785156 C 133.605469 50.324219 131.554688 51.957031 129.574219 53.679688 C 127.597656 55.40625 125.699219 57.214844 123.882812 59.109375 C 122.070312 61 120.339844 62.972656 118.699219 65.019531 C 117.0625 67.066406 115.515625 69.183594 114.066406 71.371094 C 112.613281 73.558594 111.261719 75.804688 110.011719 78.109375 C 108.761719 80.417969 107.617188 82.773438 106.578125 85.183594 C 105.539062 87.59375 104.609375 90.042969 103.789062 92.535156 C 102.96875 95.027344 102.261719 97.550781 101.667969 100.109375 C 101.074219 102.664062 100.59375 105.238281 100.230469 107.839844 C 98.972656 108.460938 97.765625 109.167969 96.609375 109.957031 C 95.449219 110.75 94.351562 111.617188 93.316406 112.558594 C 92.277344 113.503906 91.308594 114.515625 90.414062 115.589844 C 89.515625 116.667969 88.695312 117.804688 87.957031 118.996094 C 87.21875 120.1875 86.566406 121.425781 85.996094 122.707031 C 85.429688 123.988281 84.953125 125.304688 84.570312 126.652344 C 84.183594 128 83.894531 129.371094 83.699219 130.757812 C 83.507812 132.148438 83.410156 133.542969 83.410156 134.945312 L 83.410156 147.425781 C 83.40625 148.90625 83.511719 150.378906 83.726562 151.839844 C 83.941406 153.304688 84.257812 154.742188 84.679688 156.160156 C 85.105469 157.578125 85.628906 158.957031 86.253906 160.296875 C 86.875 161.636719 87.59375 162.925781 88.40625 164.160156 C 89.21875 165.398438 90.117188 166.566406 91.097656 167.671875 C 92.082031 168.777344 93.140625 169.804688 94.273438 170.757812 C 95.40625 171.707031 96.601562 172.570312 97.859375 173.347656 C 99.117188 174.125 100.425781 174.804688 101.78125 175.390625 L 101.78125 189.105469 C 101.78125 189.457031 101.816406 189.804688 101.886719 190.152344 C 101.953125 190.496094 102.054688 190.832031 102.191406 191.15625 C 102.324219 191.480469 102.492188 191.789062 102.6875 192.082031 C 102.882812 192.375 103.101562 192.644531 103.351562 192.894531 C 103.601562 193.140625 103.871094 193.363281 104.164062 193.558594 C 104.457031 193.753906 104.765625 193.921875 105.089844 194.054688 C 105.414062 194.1875 105.75 194.289062 106.09375 194.359375 C 106.441406 194.429688 106.789062 194.460938 107.140625 194.460938 L 129.265625 194.460938 C 133.394531 199.011719 137.996094 203.023438 143.0625 206.5 C 148.132812 209.976562 153.53125 212.820312 159.265625 215.035156 C 131.140625 220.390625 108.050781 234.320312 99.050781 252.480469 Z M 282.210938 134.945312 L 282.210938 147.425781 C 282.207031 148.082031 282.175781 148.734375 282.109375 149.386719 C 282.042969 150.039062 281.945312 150.6875 281.816406 151.328125 C 281.6875 151.96875 281.527344 152.605469 281.335938 153.230469 C 281.144531 153.859375 280.921875 154.472656 280.667969 155.078125 C 280.417969 155.683594 280.136719 156.273438 279.828125 156.851562 C 279.515625 157.429688 279.179688 157.988281 278.816406 158.53125 C 278.449219 159.078125 278.058594 159.601562 277.644531 160.105469 C 277.226562 160.613281 276.785156 161.097656 276.324219 161.558594 C 275.859375 162.023438 275.375 162.460938 274.867188 162.875 C 274.359375 163.292969 273.832031 163.679688 273.289062 164.042969 C 272.742188 164.40625 272.183594 164.742188 271.605469 165.050781 C 271.027344 165.359375 270.433594 165.640625 269.828125 165.890625 C 269.222656 166.140625 268.609375 166.359375 267.980469 166.550781 C 267.355469 166.738281 266.71875 166.898438 266.078125 167.027344 C 265.433594 167.152344 264.785156 167.25 264.132812 167.3125 C 263.484375 167.378906 262.828125 167.410156 262.175781 167.410156 C 263.679688 163.207031 264.816406 158.90625 265.582031 154.507812 C 266.34375 150.109375 266.726562 145.675781 266.726562 141.214844 C 266.726562 136.75 266.34375 132.316406 265.582031 127.917969 C 264.816406 123.519531 263.679688 119.21875 262.175781 115.015625 C 262.828125 115.011719 263.484375 115.042969 264.132812 115.101562 C 264.785156 115.164062 265.433594 115.257812 266.078125 115.382812 C 266.71875 115.507812 267.355469 115.664062 267.984375 115.847656 C 268.609375 116.035156 269.226562 116.253906 269.832031 116.503906 C 270.4375 116.75 271.03125 117.027344 271.609375 117.335938 C 272.1875 117.640625 272.75 117.976562 273.296875 118.339844 C 273.84375 118.699219 274.371094 119.089844 274.878906 119.5 C 275.382812 119.914062 275.871094 120.355469 276.335938 120.816406 C 276.800781 121.277344 277.238281 121.761719 277.65625 122.265625 C 278.074219 122.773438 278.464844 123.296875 278.828125 123.839844 C 279.195312 124.382812 279.53125 124.945312 279.839844 125.519531 C 280.152344 126.097656 280.429688 126.6875 280.683594 127.292969 C 280.933594 127.898438 281.15625 128.515625 281.347656 129.140625 C 281.535156 129.765625 281.695312 130.402344 281.824219 131.042969 C 281.953125 131.6875 282.046875 132.332031 282.113281 132.984375 C 282.175781 133.636719 282.210938 134.289062 282.210938 134.945312 Z M 187.496094 42.480469 C 190.046875 42.476562 192.589844 42.59375 195.128906 42.839844 C 197.667969 43.082031 200.1875 43.453125 202.6875 43.945312 C 205.191406 44.441406 207.660156 45.058594 210.101562 45.796875 C 212.542969 46.539062 214.9375 47.394531 217.292969 48.371094 C 219.648438 49.347656 221.953125 50.441406 224.199219 51.644531 C 226.445312 52.851562 228.628906 54.164062 230.746094 55.585938 C 232.863281 57.007812 234.902344 58.527344 236.871094 60.152344 C 238.835938 61.777344 240.71875 63.492188 242.515625 65.304688 C 245.214844 67.980469 247.707031 70.84375 249.988281 73.886719 C 252.269531 76.929688 254.316406 80.125 256.132812 83.46875 C 257.945312 86.8125 259.507812 90.269531 260.816406 93.839844 C 262.125 97.414062 263.167969 101.0625 263.941406 104.785156 L 262.335938 104.785156 C 260.792969 104.785156 259.257812 104.890625 257.726562 105.105469 C 256.902344 103.507812 256.023438 101.941406 255.09375 100.402344 C 254.160156 98.863281 253.175781 97.359375 252.140625 95.890625 C 251.105469 94.417969 250.023438 92.984375 248.886719 91.589844 C 247.753906 90.191406 246.574219 88.835938 245.351562 87.519531 C 244.125 86.203125 242.855469 84.933594 241.542969 83.703125 C 240.226562 82.476562 238.875 81.292969 237.480469 80.15625 C 236.085938 79.019531 234.65625 77.933594 233.1875 76.894531 C 231.71875 75.855469 230.21875 74.867188 228.679688 73.933594 C 227.144531 72.996094 225.578125 72.117188 223.984375 71.289062 C 222.386719 70.457031 220.765625 69.6875 219.113281 68.96875 C 217.464844 68.25 215.792969 67.589844 214.101562 66.988281 C 212.40625 66.382812 210.691406 65.839844 208.960938 65.355469 C 207.230469 64.867188 205.484375 64.441406 203.722656 64.074219 C 201.960938 63.710938 200.191406 63.402344 198.410156 63.160156 C 196.628906 62.914062 194.839844 62.730469 193.046875 62.605469 C 191.25 62.484375 189.457031 62.421875 187.65625 62.421875 C 185.859375 62.421875 184.0625 62.484375 182.269531 62.605469 C 180.472656 62.730469 178.6875 62.914062 176.90625 63.160156 C 175.121094 63.402344 173.351562 63.710938 171.589844 64.074219 C 169.832031 64.441406 168.085938 64.867188 166.351562 65.355469 C 164.621094 65.839844 162.910156 66.382812 161.214844 66.988281 C 159.519531 67.589844 157.847656 68.25 156.199219 68.96875 C 154.550781 69.6875 152.925781 70.457031 151.332031 71.289062 C 149.734375 72.117188 148.167969 72.996094 146.632812 73.933594 C 145.097656 74.867188 143.59375 75.855469 142.125 76.894531 C 140.660156 77.933594 139.226562 79.019531 137.832031 80.15625 C 136.441406 81.292969 135.085938 82.476562 133.773438 83.703125 C 132.460938 84.933594 131.191406 86.203125 129.964844 87.519531 C 128.738281 88.835938 127.558594 90.191406 126.425781 91.589844 C 125.292969 92.984375 124.207031 94.417969 123.171875 95.890625 C 122.136719 97.359375 121.15625 98.863281 120.222656 100.402344 C 119.289062 101.941406 118.410156 103.507812 117.585938 105.105469 C 116.335938 105.023438 115.085938 105.023438 113.835938 105.105469 L 111.320312 105.105469 C 111.75 102.921875 112.273438 100.757812 112.890625 98.617188 C 113.507812 96.476562 114.214844 94.367188 115.011719 92.289062 C 115.808594 90.207031 116.695312 88.167969 117.671875 86.164062 C 118.644531 84.160156 119.703125 82.203125 120.84375 80.289062 C 121.988281 78.378906 123.210938 76.519531 124.511719 74.710938 C 125.816406 72.90625 127.191406 71.15625 128.644531 69.46875 C 130.097656 67.78125 131.621094 66.15625 133.214844 64.601562 C 134.808594 63.042969 136.464844 61.558594 138.183594 60.144531 C 139.90625 58.730469 141.683594 57.390625 143.519531 56.128906 C 145.355469 54.867188 147.242188 53.6875 149.179688 52.589844 C 151.117188 51.488281 153.097656 50.476562 155.125 49.546875 C 157.148438 48.617188 159.210938 47.777344 161.304688 47.027344 C 163.402344 46.277344 165.527344 45.617188 167.683594 45.050781 C 169.835938 44.480469 172.011719 44.007812 174.207031 43.625 C 176.398438 43.246094 178.605469 42.957031 180.828125 42.769531 C 183.046875 42.578125 185.269531 42.480469 187.496094 42.480469 Z M 93.746094 147.425781 L 93.746094 134.945312 C 93.75 133.941406 93.828125 132.945312 93.980469 131.953125 C 94.132812 130.960938 94.359375 129.988281 94.660156 129.03125 C 94.957031 128.074219 95.328125 127.144531 95.769531 126.242188 C 96.210938 125.339844 96.714844 124.476562 97.285156 123.652344 C 97.855469 122.828125 98.484375 122.050781 99.175781 121.320312 C 99.863281 120.589844 100.601562 119.914062 101.390625 119.296875 C 102.179688 118.679688 103.011719 118.121094 103.886719 117.628906 C 104.761719 117.136719 105.667969 116.710938 106.605469 116.355469 L 107.140625 116.355469 C 109.140625 115.582031 111.210938 115.171875 113.355469 115.125 C 111.847656 119.316406 110.710938 123.609375 109.945312 128 C 109.183594 132.386719 108.800781 136.8125 108.800781 141.265625 C 108.800781 145.722656 109.183594 150.144531 109.945312 154.535156 C 110.710938 158.925781 111.847656 163.214844 113.355469 167.410156 C 112.707031 167.398438 112.0625 167.355469 111.417969 167.285156 C 110.777344 167.210938 110.136719 167.105469 109.503906 166.96875 C 108.871094 166.835938 108.25 166.667969 107.632812 166.472656 C 107.015625 166.277344 106.410156 166.050781 105.816406 165.796875 C 105.21875 165.539062 104.640625 165.257812 104.070312 164.945312 C 103.503906 164.632812 102.953125 164.292969 102.421875 163.929688 C 101.886719 163.5625 101.371094 163.171875 100.875 162.757812 C 100.378906 162.339844 99.90625 161.902344 99.453125 161.441406 C 99 160.980469 98.570312 160.496094 98.164062 159.992188 C 97.757812 159.488281 97.375 158.964844 97.019531 158.425781 C 96.664062 157.882812 96.335938 157.328125 96.035156 156.753906 C 95.734375 156.183594 95.460938 155.597656 95.21875 154.996094 C 94.972656 154.398438 94.757812 153.789062 94.574219 153.167969 C 94.390625 152.546875 94.238281 151.917969 94.113281 151.285156 C 93.988281 150.648438 93.898438 150.007812 93.835938 149.363281 C 93.773438 148.71875 93.746094 148.074219 93.746094 147.425781 Z M 112.496094 183.910156 L 112.496094 177.695312 L 113.945312 177.695312 C 115.21875 177.683594 116.484375 177.597656 117.746094 177.425781 C 118.863281 179.636719 120.097656 181.777344 121.445312 183.855469 Z M 158.730469 194.25 C 159.183594 195.199219 159.761719 196.070312 160.460938 196.859375 C 161.160156 197.648438 161.953125 198.324219 162.847656 198.886719 C 163.738281 199.449219 164.6875 199.878906 165.699219 200.175781 C 166.710938 200.472656 167.746094 200.621094 168.800781 200.625 L 179.515625 200.625 C 180.25 200.621094 180.980469 200.542969 181.703125 200.398438 C 182.421875 200.25 183.125 200.035156 183.804688 199.75 C 184.480469 199.46875 185.128906 199.121094 185.738281 198.707031 C 186.351562 198.296875 186.914062 197.832031 187.433594 197.308594 C 187.953125 196.789062 188.417969 196.21875 188.824219 195.605469 C 189.234375 194.992188 189.578125 194.347656 189.859375 193.667969 C 190.140625 192.984375 190.351562 192.285156 190.496094 191.5625 C 190.640625 190.839844 190.710938 190.109375 190.710938 189.375 L 190.710938 186.425781 C 190.710938 185.691406 190.640625 184.960938 190.496094 184.238281 C 190.351562 183.515625 190.140625 182.816406 189.859375 182.132812 C 189.578125 181.453125 189.234375 180.804688 188.824219 180.191406 C 188.417969 179.582031 187.953125 179.011719 187.433594 178.492188 C 186.914062 177.96875 186.351562 177.503906 185.738281 177.089844 C 185.128906 176.679688 184.480469 176.332031 183.804688 176.046875 C 183.125 175.765625 182.421875 175.550781 181.703125 175.402344 C 180.980469 175.253906 180.25 175.179688 179.515625 175.175781 L 168.800781 175.175781 C 168.179688 175.1875 167.5625 175.25 166.949219 175.367188 C 166.339844 175.480469 165.742188 175.644531 165.15625 175.859375 C 164.574219 176.074219 164.011719 176.332031 163.46875 176.640625 C 162.929688 176.949219 162.417969 177.300781 161.933594 177.691406 C 161.453125 178.085938 161.007812 178.515625 160.59375 178.984375 C 160.183594 179.449219 159.816406 179.949219 159.488281 180.476562 C 159.160156 181.007812 158.878906 181.558594 158.644531 182.136719 C 158.410156 182.710938 158.222656 183.300781 158.085938 183.910156 L 133.925781 183.910156 C 133.027344 182.777344 132.167969 181.621094 131.339844 180.4375 C 130.515625 179.25 129.730469 178.042969 128.980469 176.808594 C 128.234375 175.574219 127.523438 174.316406 126.855469 173.035156 C 126.1875 171.757812 125.558594 170.457031 124.972656 169.136719 C 124.386719 167.820312 123.839844 166.484375 123.339844 165.128906 C 122.835938 163.777344 122.378906 162.40625 121.964844 161.027344 C 121.546875 159.644531 121.175781 158.25 120.847656 156.84375 C 120.519531 155.4375 120.238281 154.023438 120 152.597656 C 119.761719 151.171875 119.570312 149.742188 119.421875 148.308594 C 119.277344 146.871094 119.171875 145.433594 119.117188 143.988281 C 119.0625 142.546875 119.050781 141.105469 119.085938 139.660156 C 119.121094 138.21875 119.199219 136.777344 119.328125 135.339844 C 119.453125 133.902344 119.625 132.46875 119.839844 131.039062 C 120.058594 129.613281 120.320312 128.195312 120.625 126.785156 C 120.933594 125.375 121.285156 123.972656 121.679688 122.585938 C 122.074219 121.195312 122.511719 119.820312 122.992188 118.460938 C 123.476562 117.101562 124 115.753906 124.566406 114.429688 C 125.132812 113.101562 125.742188 111.792969 126.390625 110.503906 C 127.042969 109.214844 127.730469 107.945312 128.460938 106.699219 C 129.191406 105.457031 129.960938 104.234375 130.769531 103.039062 C 131.574219 101.839844 132.417969 100.671875 133.300781 99.527344 C 134.183594 98.382812 135.097656 97.269531 136.050781 96.183594 C 137 95.097656 137.988281 94.042969 139.003906 93.019531 C 140.023438 91.996094 141.074219 91.007812 142.15625 90.050781 C 143.234375 89.09375 144.347656 88.171875 145.484375 87.285156 C 146.625 86.398438 147.789062 85.550781 148.984375 84.738281 C 150.175781 83.921875 151.394531 83.148438 152.636719 82.414062 C 153.878906 81.679688 155.144531 80.980469 156.429688 80.328125 C 157.714844 79.671875 159.019531 79.054688 160.347656 78.484375 C 161.671875 77.910156 163.011719 77.378906 164.371094 76.890625 C 165.730469 76.402344 167.101562 75.957031 168.488281 75.554688 C 169.875 75.15625 171.273438 74.796875 172.683594 74.484375 C 174.09375 74.171875 175.511719 73.902344 176.9375 73.679688 C 178.363281 73.457031 179.792969 73.277344 181.230469 73.144531 C 182.667969 73.011719 184.109375 72.925781 185.554688 72.882812 C 186.996094 72.84375 188.4375 72.847656 189.882812 72.894531 C 191.324219 72.945312 192.765625 73.039062 194.199219 73.179688 C 195.636719 73.320312 197.070312 73.507812 198.492188 73.738281 C 199.917969 73.96875 201.335938 74.246094 202.742188 74.566406 C 204.148438 74.886719 205.546875 75.253906 206.929688 75.660156 C 208.316406 76.070312 209.683594 76.523438 211.042969 77.019531 C 212.398438 77.515625 213.734375 78.054688 215.058594 78.632812 C 216.378906 79.214844 217.679688 79.835938 218.964844 80.5 C 220.246094 81.160156 221.507812 81.863281 222.746094 82.605469 C 223.984375 83.347656 225.195312 84.128906 226.386719 84.949219 C 227.574219 85.769531 228.734375 86.625 229.871094 87.519531 C 231.003906 88.410156 232.109375 89.339844 233.183594 90.300781 C 234.261719 91.265625 235.304688 92.257812 236.316406 93.289062 C 237.332031 94.316406 238.308594 95.375 239.253906 96.46875 C 240.203125 97.558594 241.113281 98.679688 241.988281 99.824219 C 242.863281 100.972656 243.699219 102.148438 244.5 103.351562 C 245.300781 104.550781 246.0625 105.777344 246.785156 107.027344 C 247.507812 108.277344 248.191406 109.546875 248.835938 110.839844 C 249.476562 112.132812 250.078125 113.445312 250.636719 114.773438 C 251.199219 116.105469 251.714844 117.453125 252.1875 118.816406 C 252.664062 120.179688 253.09375 121.558594 253.480469 122.949219 C 253.867188 124.339844 254.210938 125.738281 254.511719 127.152344 C 254.808594 128.566406 255.0625 129.984375 255.273438 131.414062 C 255.480469 132.84375 255.644531 134.277344 255.761719 135.714844 C 255.882812 137.152344 255.953125 138.59375 255.980469 140.039062 C 256.007812 141.480469 255.988281 142.925781 255.925781 144.367188 C 255.859375 145.808594 255.75 147.246094 255.59375 148.683594 C 255.441406 150.117188 255.238281 151.546875 254.992188 152.96875 C 254.75 154.390625 254.457031 155.804688 254.121094 157.210938 C 253.789062 158.613281 253.410156 160.007812 252.984375 161.386719 C 252.5625 162.765625 252.097656 164.132812 251.585938 165.484375 C 251.078125 166.832031 250.523438 168.167969 249.929688 169.484375 C 249.335938 170.796875 248.703125 172.09375 248.027344 173.371094 C 247.351562 174.644531 246.636719 175.898438 245.878906 177.128906 C 245.125 178.359375 244.332031 179.566406 243.5 180.746094 C 242.667969 181.925781 241.800781 183.078125 240.898438 184.203125 C 239.992188 185.328125 239.054688 186.425781 238.078125 187.492188 C 237.105469 188.554688 236.101562 189.589844 235.0625 190.59375 C 234.023438 191.59375 232.953125 192.5625 231.851562 193.5 C 230.75 194.433594 229.625 195.332031 228.464844 196.195312 C 227.308594 197.058594 226.125 197.882812 224.917969 198.671875 C 223.707031 199.460938 222.472656 200.210938 221.21875 200.921875 C 219.960938 201.628906 218.683594 202.300781 217.382812 202.929688 C 216.082031 203.558594 214.765625 204.148438 213.429688 204.695312 C 212.09375 205.238281 210.742188 205.742188 209.371094 206.203125 C 208.003906 206.664062 206.625 207.082031 205.230469 207.453125 C 203.835938 207.828125 202.429688 208.15625 201.015625 208.441406 C 199.597656 208.726562 198.175781 208.964844 196.746094 209.160156 C 195.316406 209.351562 193.878906 209.503906 192.4375 209.605469 C 191 209.710938 189.558594 209.765625 188.113281 209.78125 C 186.671875 209.792969 185.226562 209.757812 183.785156 209.679688 C 182.34375 209.601562 180.90625 209.476562 179.472656 209.304688 C 178.039062 209.136719 176.613281 208.921875 175.191406 208.660156 C 173.773438 208.402344 172.363281 208.097656 170.960938 207.746094 C 169.5625 207.398438 168.171875 207.003906 166.796875 206.566406 C 165.421875 206.128906 164.0625 205.648438 162.714844 205.128906 C 161.371094 204.605469 160.042969 204.039062 158.730469 203.429688 C 157.421875 202.824219 156.132812 202.175781 154.863281 201.488281 C 153.597656 200.796875 152.351562 200.070312 151.128906 199.304688 C 149.90625 198.535156 148.707031 197.730469 147.535156 196.886719 C 146.363281 196.042969 145.21875 195.164062 144.105469 194.25 Z M 168.480469 185.675781 L 179.515625 185.675781 C 179.75 185.675781 179.953125 185.761719 180.121094 185.929688 C 180.289062 186.09375 180.371094 186.296875 180.371094 186.535156 L 180.371094 189.480469 C 180.371094 189.71875 180.289062 189.917969 180.121094 190.085938 C 179.953125 190.253906 179.75 190.335938 179.515625 190.335938 L 169.28125 190.335938 C 169.332031 189.960938 169.332031 189.585938 169.28125 189.210938 C 169.359375 187.902344 169 186.722656 168.210938 185.675781 Z M 186.640625 222.480469 L 188.890625 222.480469 C 224.140625 222.480469 256.976562 237.050781 266.941406 257.085938 L 297.101562 317.730469 C 278.78125 322.769531 260.203125 326.519531 241.363281 328.988281 C 222.523438 331.457031 203.601562 332.613281 184.605469 332.460938 C 166.625 332.347656 148.730469 331.054688 130.921875 328.589844 C 113.117188 326.125 95.542969 322.503906 78.210938 317.730469 L 108.320312 257.140625 C 118.28125 237.050781 151.121094 222.480469 186.371094 222.480469 Z M 186.640625 222.480469 " fill-opacity="1" fill-rule="nonzero"/></g></svg>