<svg xmlns="http://www.w3.org/2000/svg" xmlns:xlink="http://www.w3.org/1999/xlink" width="500" zoomAndPan="magnify" viewBox="0 0 375 374.999991" height="500" preserveAspectRatio="xMidYMid meet" version="1.0"><defs><clipPath id="ba3e4c1c97"><path d="M 29.902344 11.414062 L 344.902344 11.414062 L 344.902344 363.914062 L 29.902344 363.914062 Z M 29.902344 11.414062 " clip-rule="nonzero"/></clipPath></defs><g clip-path="url(#ba3e4c1c97)"><path fill="#0277bd" d="M 344.855469 11.414062 L 29.953125 11.414062 L 57.738281 326.808594 L 187.402344 363.914062 L 317.070312 326.808594 Z M 344.855469 11.414062 " fill-opacity="1" fill-rule="nonzero"/></g><path fill="#039be5" d="M 187.402344 39.242188 L 187.402344 335.160156 L 291.136719 305.472656 L 314.292969 39.242188 Z M 187.402344 39.242188 " fill-opacity="1" fill-rule="nonzero"/><path fill="#ffffff" d="M 271.6875 85.625 L 187.402344 85.625 L 187.402344 122.730469 L 232.785156 122.730469 L 230.007812 159.835938 L 187.402344 159.835938 L 187.402344 196.941406 L 228.15625 196.941406 L 225.378906 238.683594 L 187.402344 251.671875 L 187.402344 290.632812 L 260.574219 266.511719 L 267.054688 159.835938 Z M 271.6875 85.625 " fill-opacity="1" fill-rule="nonzero"/><path fill="#eeeeee" d="M 187.402344 85.625 L 187.402344 122.730469 L 104.972656 122.730469 L 102.195312 85.625 Z M 144.800781 159.835938 L 146.652344 196.941406 L 187.402344 196.941406 L 187.402344 159.835938 Z M 148.503906 215.492188 L 111.457031 215.492188 L 114.234375 266.511719 L 187.402344 290.632812 L 187.402344 251.671875 L 149.429688 238.683594 Z M 148.503906 215.492188 " fill-opacity="1" fill-rule="nonzero"/></svg>