<svg xmlns="http://www.w3.org/2000/svg" xmlns:xlink="http://www.w3.org/1999/xlink" width="500" zoomAndPan="magnify" viewBox="0 0 375 374.999991" height="500" preserveAspectRatio="xMidYMid meet" version="1.0"><defs><clipPath id="b922b1c9d6"><path d="M 32.460938 32.460938 L 342.210938 32.460938 L 342.210938 342.210938 L 32.460938 342.210938 Z M 32.460938 32.460938 " clip-rule="nonzero"/></clipPath></defs><g clip-path="url(#b922b1c9d6)"><path fill="#ffffff" d="M 119.269531 233.316406 C 125.589844 226.996094 135.878906 226.996094 142.203125 233.316406 C 145.265625 236.382812 146.953125 240.453125 146.953125 244.789062 C 146.953125 249.121094 145.265625 253.195312 142.203125 256.257812 C 139.136719 259.320312 135.070312 261.007812 130.738281 261.007812 C 126.402344 261.007812 122.332031 259.320312 119.269531 256.257812 C 116.207031 253.195312 114.519531 249.121094 114.519531 244.789062 C 114.519531 240.453125 116.207031 236.382812 119.269531 233.316406 Z M 117.640625 123.050781 C 123.964844 116.722656 134.261719 116.722656 140.585938 123.050781 C 146.914062 129.375 146.914062 139.667969 140.585938 145.996094 C 137.421875 149.15625 133.269531 150.738281 129.113281 150.738281 C 124.957031 150.738281 120.804688 149.15625 117.640625 145.996094 C 111.316406 139.667969 111.316406 129.375 117.640625 123.050781 Z M 124.789062 191.277344 C 124.789062 200.222656 117.515625 207.492188 108.570312 207.492188 C 99.628906 207.492188 92.355469 200.222656 92.355469 191.277344 C 92.355469 182.339844 99.628906 175.0625 108.570312 175.0625 C 117.515625 175.0625 124.789062 182.339844 124.789062 191.277344 Z M 202.628906 108.574219 C 202.628906 117.519531 195.355469 124.792969 186.410156 124.792969 C 177.46875 124.792969 170.195312 117.519531 170.195312 108.574219 C 170.195312 99.636719 177.46875 92.359375 186.410156 92.359375 C 195.355469 92.359375 202.628906 99.636719 202.628906 108.574219 Z M 314.144531 165.199219 C 311.660156 168.265625 308.886719 171.019531 305.867188 173.417969 L 305.867188 243.167969 C 305.867188 249.140625 301.03125 253.980469 295.058594 253.980469 C 289.089844 253.980469 284.25 249.140625 284.25 243.167969 L 284.25 183.648438 C 282.386719 184.050781 280.492188 184.359375 278.570312 184.5625 C 276.644531 184.769531 274.71875 184.871094 272.8125 184.871094 C 269.359375 184.871094 265.957031 184.527344 262.628906 183.878906 L 262.628906 292.652344 L 262.613281 292.925781 C 262.421875 296.695312 264.335938 299.414062 265.496094 300.699219 C 267.425781 302.832031 270.070312 304.09375 272.949219 304.238281 C 275.828125 304.386719 278.585938 303.398438 280.722656 301.472656 C 282.859375 299.542969 284.117188 296.894531 284.261719 294.019531 C 284.566406 288.058594 289.644531 283.46875 295.609375 283.769531 C 301.570312 284.074219 306.160156 289.15625 305.855469 295.117188 C 305.417969 303.761719 301.640625 311.71875 295.214844 317.519531 C 289.210938 322.941406 281.570312 325.875 273.535156 325.875 C 272.976562 325.875 272.414062 325.863281 271.851562 325.832031 C 263.207031 325.390625 255.253906 321.609375 249.453125 315.1875 C 243.648438 308.765625 240.65625 300.585938 241.007812 292.128906 L 241.007812 228.335938 C 228.699219 229.199219 222.230469 231.753906 218.871094 233.960938 C 215.011719 236.5 213.4375 239.636719 213.4375 244.796875 C 213.4375 249.757812 215.050781 254.140625 217.097656 259.691406 C 219.6875 266.730469 222.628906 274.699219 222.628906 285.332031 C 222.628906 295.363281 219.523438 304.734375 213.875 311.722656 C 208.664062 318.175781 198.632812 325.875 180.464844 325.875 C 143.773438 325.875 110.164062 311.371094 85.835938 285.035156 C 62.15625 259.40625 49.113281 224.765625 49.113281 187.496094 C 49.113281 150.535156 63.507812 115.785156 89.640625 89.648438 C 115.78125 63.511719 150.527344 49.117188 187.492188 49.117188 C 190.414062 49.117188 193.371094 49.207031 196.277344 49.390625 C 202.234375 49.765625 206.765625 54.898438 206.390625 60.855469 C 206.019531 66.8125 200.886719 71.339844 194.925781 70.96875 C 192.46875 70.816406 189.964844 70.738281 187.492188 70.738281 C 123.113281 70.738281 70.734375 123.117188 70.734375 187.496094 C 70.734375 254.058594 117.90625 304.253906 180.464844 304.253906 C 188.195312 304.253906 193.777344 302.195312 197.054688 298.136719 C 200.492188 293.878906 201.003906 288.289062 201.003906 285.332031 C 201.003906 278.558594 199.058594 273.277344 196.808594 267.167969 C 194.46875 260.8125 191.816406 253.613281 191.816406 244.796875 C 191.816406 232.414062 197.066406 222.421875 206.992188 215.894531 C 215.085938 210.574219 226.269531 207.53125 241.007812 206.671875 L 241.007812 174.113281 C 240.765625 173.925781 240.515625 173.746094 240.273438 173.558594 C 229.335938 164.84375 222.265625 152.152344 220.355469 137.8125 C 218.597656 124.570312 222.6875 113.203125 226.292969 103.171875 C 231.050781 89.941406 234.808594 79.488281 226.738281 65.261719 C 224.8125 61.867188 224.867188 57.699219 226.875 54.355469 C 228.890625 51.007812 232.539062 49.015625 236.449219 49.121094 C 237.695312 49.15625 267.183594 50.203125 290.390625 68.9375 C 306.902344 82.269531 322.59375 98.449219 325.574219 126.34375 C 327.078125 140.402344 323.019531 154.199219 314.144531 165.199219 Z M 300.855469 55.976562 C 273.6875 34.042969 240.566406 32.566406 236.152344 32.457031 C 228.335938 32.457031 220.882812 35.855469 215.742188 41.535156 C 211.109375 36.53125 204.625 33.226562 197.296875 32.761719 C 194.050781 32.5625 190.746094 32.457031 187.492188 32.457031 C 146.082031 32.457031 107.148438 48.585938 77.871094 77.867188 C 48.585938 107.148438 32.460938 146.082031 32.460938 187.492188 C 32.460938 228.972656 47.066406 267.628906 73.597656 296.34375 C 101.121094 326.128906 139.070312 342.53125 180.464844 342.53125 C 199.769531 342.53125 216.242188 335.308594 226.835938 322.1875 C 228.136719 320.570312 229.351562 318.871094 230.460938 317.105469 C 232.28125 320.390625 234.503906 323.496094 237.085938 326.363281 C 245.871094 336.078125 257.921875 341.800781 270.898438 342.460938 C 271.800781 342.507812 272.660156 342.53125 273.535156 342.53125 C 285.671875 342.53125 297.339844 338.042969 306.375 329.878906 C 316.113281 321.089844 321.832031 309.042969 322.492188 295.964844 C 322.859375 288.636719 320.363281 281.601562 315.441406 276.160156 C 312.46875 272.863281 308.8125 270.382812 304.78125 268.863281 C 315.136719 264.929688 322.523438 254.898438 322.523438 243.167969 L 322.523438 180.792969 C 324.117188 179.164062 325.648438 177.453125 327.097656 175.664062 C 338.78125 161.207031 344.117188 143.058594 342.128906 124.570312 C 338.5 90.554688 319.226562 70.808594 300.855469 55.976562 " fill-opacity="1" fill-rule="nonzero"/></g><path fill="#ffffff" d="M 276.808594 85.761719 C 269.015625 79.472656 260.027344 75.804688 252.457031 73.667969 C 254.746094 87.953125 250.371094 100.113281 246.640625 110.484375 C 243.464844 119.3125 240.726562 126.9375 241.792969 134.964844 C 242.957031 143.734375 247.203125 151.433594 253.75 156.644531 C 260.042969 161.65625 268.046875 163.941406 276.292969 163.0625 C 284.601562 162.179688 292.070312 158.113281 297.316406 151.613281 C 302.570312 145.113281 304.96875 136.957031 304.078125 128.648438 C 302.046875 109.625 292.136719 98.136719 276.808594 85.761719 " fill-opacity="1" fill-rule="nonzero"/></svg>