<svg xmlns="http://www.w3.org/2000/svg" xmlns:xlink="http://www.w3.org/1999/xlink" width="500" zoomAndPan="magnify" viewBox="0 0 375 374.999991" height="500" preserveAspectRatio="xMidYMid meet" version="1.0"><defs><clipPath id="2ccda8407b"><path d="M 37.5 111.644531 L 318.75 111.644531 L 318.75 263.140625 L 37.5 263.140625 Z M 37.5 111.644531 " clip-rule="nonzero"/></clipPath></defs><g clip-path="url(#2ccda8407b)"><path fill="#ffffff" d="M 102.855469 191.980469 L 178.300781 218.304688 L 253.746094 191.980469 L 253.746094 237.566406 C 253.746094 251.808594 219.96875 263.351562 178.300781 263.351562 C 136.632812 263.351562 102.855469 251.808594 102.855469 237.566406 Z M 178.300781 111.644531 L 319.101562 160.773438 L 298.277344 168.039062 L 298.277344 208.398438 L 298.863281 208.578125 C 301.992188 209.898438 304.183594 212.992188 304.183594 216.597656 C 304.183594 219 303.207031 221.175781 301.632812 222.753906 L 301.492188 222.867188 L 306.359375 251.390625 L 284.59375 251.390625 L 289.460938 222.867188 L 289.320312 222.753906 C 287.742188 221.175781 286.773438 219 286.773438 216.597656 C 286.773438 212.992188 288.964844 209.898438 292.085938 208.578125 L 292.675781 208.398438 L 292.675781 169.992188 L 178.300781 209.898438 L 37.5 160.773438 Z M 178.300781 111.644531 " fill-opacity="1" fill-rule="evenodd"/></g></svg>