<svg xmlns="http://www.w3.org/2000/svg" xmlns:xlink="http://www.w3.org/1999/xlink" width="500" zoomAndPan="magnify" viewBox="0 0 375 374.999991" height="500" preserveAspectRatio="xMidYMid meet" version="1.0"><path fill="#ffffff" d="M 172.953125 83.363281 C 123.09375 88.886719 82.46875 129.117188 76.449219 178.898438 C 76.0625 182.027344 75.808594 185.164062 75.6875 188.3125 C 75.566406 191.460938 75.582031 194.609375 75.730469 197.757812 C 75.882812 200.90625 76.164062 204.039062 76.585938 207.164062 C 77.003906 210.285156 77.554688 213.386719 78.238281 216.460938 C 78.921875 219.539062 79.738281 222.578125 80.683594 225.585938 C 81.628906 228.589844 82.703125 231.550781 83.902344 234.464844 C 85.097656 237.378906 86.421875 240.234375 87.867188 243.035156 C 89.308594 245.835938 90.871094 248.570312 92.550781 251.238281 C 94.226562 253.90625 96.015625 256.496094 97.917969 259.007812 C 99.820312 261.519531 101.824219 263.949219 103.933594 266.289062 C 106.042969 268.632812 108.246094 270.878906 110.546875 273.03125 C 112.847656 275.183594 115.238281 277.234375 117.714844 279.179688 C 120.191406 281.128906 122.75 282.964844 125.382812 284.695312 C 128.019531 286.421875 130.722656 288.035156 133.496094 289.53125 C 136.269531 291.027344 139.101562 292.402344 141.992188 293.65625 C 144.882812 294.910156 147.824219 296.035156 150.808594 297.039062 C 156.3125 297.917969 158.070312 294.507812 158.070312 291.542969 L 158.070312 272.957031 C 127.617188 279.574219 121.132812 258.230469 121.132812 258.230469 C 116.089844 245.476562 108.929688 242.066406 108.929688 242.066406 C 98.921875 235.25 109.707031 235.472656 109.707031 235.472656 C 120.699219 236.253906 126.527344 246.796875 126.527344 246.796875 C 136.09375 263.507812 152.25 258.558594 158.515625 255.921875 C 159.503906 248.777344 162.40625 243.933594 165.441406 241.1875 C 140.996094 238.441406 115.414062 228.984375 115.414062 187.101562 C 115.414062 174.898438 119.59375 165.117188 126.738281 157.308594 C 125.640625 154.5625 121.789062 143.128906 127.835938 128.285156 C 127.835938 128.285156 137.074219 125.3125 158.070312 139.5 C 162.550781 138.292969 167.09375 137.386719 171.691406 136.777344 C 176.292969 136.171875 180.914062 135.867188 185.554688 135.867188 C 190.195312 135.867188 194.8125 136.171875 199.414062 136.777344 C 204.015625 137.386719 208.554688 138.292969 213.035156 139.5 C 234.050781 125.3125 243.273438 128.285156 243.273438 128.285156 C 249.3125 143.128906 245.46875 154.5625 244.371094 157.308594 C 251.515625 165.09375 255.695312 174.898438 255.695312 187.101562 C 255.695312 229.09375 229.964844 238.332031 205.457031 241.078125 C 209.410156 244.488281 213.035156 251.195312 213.035156 261.414062 L 213.035156 291.542969 C 213.035156 294.507812 214.792969 298.027344 220.40625 297.039062 C 222 296.503906 223.582031 295.933594 225.148438 295.328125 C 226.714844 294.722656 228.269531 294.078125 229.808594 293.402344 C 231.34375 292.722656 232.867188 292.011719 234.371094 291.265625 C 235.878906 290.515625 237.363281 289.734375 238.835938 288.917969 C 240.304688 288.105469 241.753906 287.253906 243.1875 286.375 C 244.617188 285.492188 246.027344 284.578125 247.414062 283.632812 C 248.804688 282.683594 250.171875 281.707031 251.515625 280.699219 C 252.859375 279.6875 254.179688 278.648438 255.476562 277.578125 C 256.773438 276.507812 258.042969 275.410156 259.289062 274.28125 C 260.535156 273.15625 261.753906 272 262.949219 270.816406 C 264.140625 269.632812 265.308594 268.421875 266.445312 267.183594 C 267.582031 265.945312 268.691406 264.683594 269.769531 263.394531 C 270.851562 262.109375 271.902344 260.796875 272.921875 259.460938 C 273.941406 258.125 274.929688 256.765625 275.886719 255.382812 C 276.84375 254.003906 277.769531 252.601562 278.660156 251.175781 C 279.554688 249.753906 280.414062 248.308594 281.242188 246.84375 C 282.070312 245.382812 282.863281 243.902344 283.621094 242.402344 C 284.382812 240.902344 285.105469 239.386719 285.796875 237.851562 C 286.484375 236.320312 287.140625 234.773438 287.757812 233.210938 C 288.375 231.648438 288.960938 230.070312 289.507812 228.480469 C 290.050781 226.890625 290.5625 225.289062 291.035156 223.679688 C 291.507812 222.066406 291.945312 220.441406 292.34375 218.808594 C 292.742188 217.175781 293.105469 215.535156 293.425781 213.886719 C 293.75 212.238281 294.035156 210.582031 294.285156 208.917969 C 294.53125 207.257812 294.742188 205.589844 294.914062 203.917969 C 295.085938 202.246094 295.21875 200.570312 295.3125 198.890625 C 295.40625 197.214844 295.464844 195.535156 295.480469 193.855469 C 295.5 192.171875 295.476562 190.492188 295.417969 188.8125 C 295.359375 187.132812 295.261719 185.457031 295.125 183.78125 C 294.988281 182.105469 294.816406 180.433594 294.601562 178.765625 C 294.390625 177.101562 294.136719 175.4375 293.851562 173.78125 C 293.5625 172.128906 293.234375 170.480469 292.871094 168.839844 C 292.503906 167.199219 292.105469 165.566406 291.664062 163.945312 C 291.226562 162.320312 290.75 160.710938 290.234375 159.109375 C 289.722656 157.507812 289.175781 155.921875 288.589844 154.34375 C 288.003906 152.769531 287.382812 151.207031 286.722656 149.660156 C 286.066406 148.113281 285.375 146.582031 284.648438 145.066406 C 283.917969 143.554688 283.15625 142.054688 282.359375 140.574219 C 281.566406 139.09375 280.734375 137.632812 279.871094 136.191406 C 279.007812 134.75 278.113281 133.328125 277.1875 131.925781 C 276.257812 130.523438 275.296875 129.144531 274.304688 127.789062 C 273.316406 126.429688 272.292969 125.097656 271.242188 123.785156 C 270.1875 122.476562 269.105469 121.191406 267.996094 119.929688 C 266.882812 118.667969 265.742188 117.433594 264.574219 116.226562 C 263.40625 115.015625 262.214844 113.835938 260.992188 112.679688 C 259.769531 111.527344 258.519531 110.402344 257.246094 109.304688 C 255.972656 108.207031 254.675781 107.140625 253.351562 106.105469 C 252.03125 105.066406 250.683594 104.0625 249.316406 103.085938 C 247.949219 102.109375 246.558594 101.167969 245.144531 100.253906 C 243.734375 99.34375 242.300781 98.464844 240.847656 97.617188 C 239.398438 96.769531 237.925781 95.957031 236.4375 95.179688 C 234.949219 94.402344 233.441406 93.65625 231.917969 92.945312 C 230.394531 92.238281 228.855469 91.5625 227.300781 90.921875 C 225.746094 90.285156 224.175781 89.679688 222.59375 89.113281 C 221.011719 88.546875 219.417969 88.015625 217.8125 87.519531 C 216.207031 87.023438 214.589844 86.566406 212.960938 86.148438 C 211.335938 85.726562 209.699219 85.34375 208.054688 85 C 206.410156 84.652344 204.757812 84.347656 203.097656 84.078125 C 201.4375 83.808594 199.773438 83.574219 198.105469 83.382812 C 196.433594 83.1875 194.761719 83.035156 193.085938 82.917969 C 191.410156 82.800781 189.730469 82.722656 188.050781 82.683594 C 186.371094 82.640625 184.691406 82.640625 183.007812 82.679688 C 181.328125 82.714844 179.648438 82.789062 177.972656 82.90625 C 176.296875 83.019531 174.621094 83.171875 172.953125 83.363281 Z M 172.953125 83.363281 " fill-opacity="1" fill-rule="nonzero"/></svg>