<svg xmlns="http://www.w3.org/2000/svg" xmlns:xlink="http://www.w3.org/1999/xlink" width="500" zoomAndPan="magnify" viewBox="0 0 375 374.999991" height="500" preserveAspectRatio="xMidYMid meet" version="1.0"><defs><clipPath id="c172d044dd"><path d="M 14.5 165 L 360.25 165 L 360.25 210 L 14.5 210 Z M 14.5 165 " clip-rule="nonzero"/></clipPath><clipPath id="6c56b4b39b"><path d="M 14.5 266 L 360.25 266 L 360.25 310.136719 L 14.5 310.136719 Z M 14.5 266 " clip-rule="nonzero"/></clipPath><clipPath id="f521346374"><path d="M 14.5 64.886719 L 360.25 64.886719 L 360.25 109 L 14.5 109 Z M 14.5 64.886719 " clip-rule="nonzero"/></clipPath></defs><g clip-path="url(#c172d044dd)"><path fill="#ffffff" d="M 338.871094 165.875 L 36.125 165.875 C 24.179688 165.875 14.5 175.554688 14.5 187.5 C 14.5 199.441406 24.179688 209.125 36.125 209.125 L 338.871094 209.125 C 350.816406 209.125 360.496094 199.441406 360.496094 187.5 C 360.496094 175.554688 350.816406 165.875 338.871094 165.875 Z M 338.871094 165.875 " fill-opacity="1" fill-rule="nonzero"/></g><g clip-path="url(#6c56b4b39b)"><path fill="#ffffff" d="M 338.871094 266.789062 L 36.125 266.789062 C 24.179688 266.789062 14.5 276.46875 14.5 288.414062 C 14.5 300.359375 24.179688 310.039062 36.125 310.039062 L 338.871094 310.039062 C 350.816406 310.039062 360.496094 300.359375 360.496094 288.414062 C 360.496094 276.46875 350.816406 266.789062 338.871094 266.789062 Z M 338.871094 266.789062 " fill-opacity="1" fill-rule="nonzero"/></g><g clip-path="url(#f521346374)"><path fill="#ffffff" d="M 36.125 108.207031 L 338.871094 108.207031 C 350.816406 108.207031 360.496094 98.527344 360.496094 86.582031 C 360.496094 74.640625 350.816406 64.957031 338.871094 64.957031 L 36.125 64.957031 C 24.179688 64.957031 14.5 74.640625 14.5 86.582031 C 14.5 98.527344 24.179688 108.207031 36.125 108.207031 Z M 36.125 108.207031 " fill-opacity="1" fill-rule="nonzero"/></g></svg>