<svg xmlns="http://www.w3.org/2000/svg" xmlns:xlink="http://www.w3.org/1999/xlink" width="500" zoomAndPan="magnify" viewBox="0 0 375 374.999991" height="500" preserveAspectRatio="xMidYMid meet" version="1.0"><defs><clipPath id="26502ad632"><path d="M 76 119 L 299 119 L 299 320.210938 L 76 320.210938 Z M 76 119 " clip-rule="nonzero"/></clipPath></defs><path fill="#ffffff" d="M 321.355469 147.984375 L 276.375 114.898438 L 276.375 75.433594 C 276.375 69.242188 271.351562 64.238281 265.171875 64.238281 L 246.96875 64.238281 C 240.78125 64.238281 235.765625 69.253906 235.765625 75.433594 L 235.765625 85.019531 L 201.46875 59.796875 C 194.027344 54.308594 181.847656 54.308594 174.40625 59.796875 L 54.519531 147.984375 C 47.082031 153.464844 45.476562 164.042969 50.953125 171.492188 L 54.265625 175.988281 C 59.738281 183.4375 70.316406 185.050781 77.746094 179.574219 L 174.40625 108.441406 C 181.847656 102.960938 194.027344 102.960938 201.46875 108.441406 L 298.117188 179.574219 C 305.558594 185.050781 316.128906 183.429688 321.597656 175.988281 L 324.921875 171.492188 C 330.390625 164.042969 328.785156 153.464844 321.355469 147.984375 Z M 321.355469 147.984375 " fill-opacity="1" fill-rule="nonzero"/><g clip-path="url(#26502ad632)"><path fill="#ffffff" d="M 285.488281 185.761719 L 201.445312 123.644531 C 194.011719 118.152344 181.863281 118.152344 174.429688 123.644531 L 90.386719 185.761719 C 82.953125 191.257812 76.871094 199.292969 76.871094 203.652344 L 76.871094 293.707031 C 76.871094 308.328125 89.40625 320.1875 104.875 320.1875 L 156.199219 320.1875 L 156.199219 240.523438 C 156.199219 234.371094 161.242188 229.339844 167.394531 229.339844 L 208.464844 229.339844 C 214.617188 229.339844 219.65625 234.371094 219.65625 240.523438 L 219.65625 320.1875 L 270.992188 320.1875 C 286.453125 320.1875 298.976562 308.328125 298.976562 293.707031 L 298.976562 203.652344 C 298.988281 199.292969 292.921875 191.257812 285.488281 185.761719 Z M 285.488281 185.761719 " fill-opacity="1" fill-rule="nonzero"/></g></svg>