<svg xmlns="http://www.w3.org/2000/svg" xmlns:xlink="http://www.w3.org/1999/xlink" width="500" zoomAndPan="magnify" viewBox="0 0 375 374.999991" height="500" preserveAspectRatio="xMidYMid meet" version="1.0"><defs><clipPath id="9359e2f90e"><path d="M 30 9 L 344.902344 9 L 344.902344 366 L 30 366 Z M 30 9 " clip-rule="nonzero"/></clipPath></defs><g clip-path="url(#9359e2f90e)"><path fill="#e44d26" d="M 58.804688 330.046875 L 30.1875 9.085938 L 344.621094 9.085938 L 315.972656 329.988281 L 187.210938 365.695312 Z M 58.804688 330.046875 " fill-opacity="1" fill-rule="nonzero"/></g><path fill="#f16529" d="M 187.402344 338.414062 L 291.457031 309.574219 L 315.929688 35.328125 L 187.402344 35.328125 Z M 187.402344 338.414062 " fill-opacity="1" fill-rule="nonzero"/><path fill="#ebebeb" d="M 187.402344 154.375 L 135.308594 154.375 L 131.714844 114.0625 L 187.402344 114.0625 L 187.402344 74.703125 L 88.699219 74.703125 L 89.636719 85.25 L 99.308594 193.734375 L 187.402344 193.734375 Z M 187.402344 256.601562 L 187.226562 256.644531 L 143.394531 244.804688 L 140.585938 213.40625 L 101.074219 213.40625 L 106.589844 275.21875 L 187.226562 297.597656 L 187.402344 297.550781 Z M 187.402344 256.601562 " fill-opacity="1" fill-rule="nonzero"/><path fill="#ffffff" d="M 187.269531 154.375 L 187.269531 193.734375 L 235.738281 193.734375 L 231.160156 244.789062 L 187.253906 256.632812 L 187.253906 297.582031 L 267.953125 275.21875 L 268.546875 268.5625 L 277.804688 164.925781 L 278.769531 154.359375 L 268.160156 154.359375 Z M 187.269531 74.703125 L 187.269531 114.0625 L 282.347656 114.0625 L 283.136719 105.207031 L 284.933594 85.25 L 285.871094 74.6875 Z M 187.269531 74.703125 " fill-opacity="1" fill-rule="nonzero"/></svg>