<svg xmlns="http://www.w3.org/2000/svg" xmlns:xlink="http://www.w3.org/1999/xlink" width="500" zoomAndPan="magnify" viewBox="0 0 375 374.999991" height="500" preserveAspectRatio="xMidYMid meet" version="1.0"><defs><clipPath id="18b7e2b8cb"><path d="M 37.5 63.367188 L 337.5 63.367188 L 337.5 265 L 37.5 265 Z M 37.5 63.367188 " clip-rule="nonzero"/></clipPath><clipPath id="fcb6ff3f0c"><path d="M 99 293 L 276 293 L 276 311.617188 L 99 311.617188 Z M 99 293 " clip-rule="nonzero"/></clipPath></defs><g clip-path="url(#18b7e2b8cb)"><path fill="#ffffff" d="M 324.410156 223.113281 L 50.589844 223.113281 L 50.589844 77.722656 C 50.589844 77.074219 51.121094 76.550781 51.769531 76.550781 L 323.238281 76.550781 C 323.878906 76.550781 324.410156 77.074219 324.410156 77.722656 Z M 217.515625 251.28125 C 216.109375 252.6875 214.15625 253.566406 212.003906 253.566406 L 162.996094 253.566406 C 158.6875 253.566406 155.199219 250.066406 155.199219 245.761719 C 155.199219 243.605469 156.070312 241.65625 157.484375 240.246094 C 158.890625 238.832031 160.84375 237.964844 162.996094 237.964844 L 212.003906 237.964844 C 216.3125 237.964844 219.800781 241.453125 219.800781 245.761719 C 219.800781 247.914062 218.929688 249.863281 217.515625 251.28125 Z M 323.238281 63.457031 L 51.769531 63.457031 C 43.898438 63.457031 37.496094 69.859375 37.496094 77.722656 L 37.496094 250.433594 C 37.496094 258.300781 43.898438 264.703125 51.769531 264.703125 L 323.238281 264.703125 C 331.101562 264.703125 337.503906 258.300781 337.503906 250.433594 L 337.503906 77.722656 C 337.503906 69.859375 331.101562 63.457031 323.238281 63.457031 " fill-opacity="1" fill-rule="nonzero"/></g><path fill="#ffffff" d="M 215.871094 245.761719 C 215.871094 246.796875 215.464844 247.769531 214.738281 248.503906 C 214.003906 249.234375 213.035156 249.636719 212.003906 249.636719 L 162.996094 249.636719 C 160.863281 249.636719 159.128906 247.894531 159.128906 245.761719 C 159.128906 244.726562 159.527344 243.757812 160.269531 243.015625 C 160.996094 242.292969 161.964844 241.890625 162.996094 241.890625 L 212.003906 241.890625 C 214.136719 241.890625 215.871094 243.625 215.871094 245.761719 " fill-opacity="1" fill-rule="nonzero"/><g clip-path="url(#fcb6ff3f0c)"><path fill="#ffffff" d="M 275.730469 311.511719 L 99.277344 311.511719 C 102.78125 301.238281 112.53125 293.828125 123.976562 293.828125 L 251.03125 293.828125 C 262.484375 293.828125 272.222656 301.238281 275.730469 311.511719 " fill-opacity="1" fill-rule="nonzero"/></g><path fill="#ffffff" d="M 221.085938 289.085938 L 153.917969 289.085938 L 160.523438 269.445312 L 214.480469 269.445312 L 221.085938 289.085938 " fill-opacity="1" fill-rule="nonzero"/></svg>