<svg xmlns="http://www.w3.org/2000/svg" xmlns:xlink="http://www.w3.org/1999/xlink" width="500" zoomAndPan="magnify" viewBox="0 0 375 374.999991" height="500" preserveAspectRatio="xMidYMid meet" version="1.0"><defs><clipPath id="171d8db588"><path d="M 18.546875 18.546875 L 356.796875 18.546875 L 356.796875 356.796875 L 18.546875 356.796875 Z M 18.546875 18.546875 " clip-rule="nonzero"/></clipPath></defs><g clip-path="url(#171d8db588)"><path fill="#ffd600" d="M 18.546875 18.546875 L 356.796875 18.546875 L 356.796875 356.796875 L 18.546875 356.796875 Z M 18.546875 18.546875 " fill-opacity="1" fill-rule="nonzero"/></g><path fill="#000001" d="M 239.707031 271.738281 C 246.210938 282.296875 253.273438 292.417969 268.242188 292.417969 C 280.8125 292.417969 287.410156 286.167969 287.410156 277.527344 C 287.410156 267.179688 280.589844 263.507812 266.757812 257.484375 L 259.175781 254.253906 C 237.292969 244.96875 222.738281 233.335938 222.738281 208.765625 C 222.738281 186.125 240.074219 168.890625 267.160156 168.890625 C 286.453125 168.890625 300.3125 175.570312 310.308594 193.066406 L 286.6875 208.164062 C 281.492188 198.882812 275.871094 195.226562 267.160156 195.226562 C 258.273438 195.226562 252.644531 200.835938 252.644531 208.164062 C 252.644531 217.222656 258.28125 220.886719 271.296875 226.496094 L 278.878906 229.730469 C 304.671875 240.710938 319.214844 251.929688 319.214844 277.148438 C 319.214844 304.324219 297.753906 319.214844 268.949219 319.214844 C 240.769531 319.214844 224.769531 305.074219 215.859375 287.570312 Z M 130.847656 272.507812 C 135.601562 281.019531 142.828125 287.570312 153.21875 287.570312 C 163.160156 287.570312 168.882812 283.640625 168.882812 268.375 L 168.882812 168.882812 L 200.199219 168.882812 L 200.199219 273.183594 C 200.199219 304.820312 181.847656 319.214844 155.050781 319.214844 C 130.839844 319.214844 113.363281 302.808594 106.238281 287.570312 Z M 130.847656 272.507812 " fill-opacity="1" fill-rule="nonzero"/></svg>