<svg xmlns="http://www.w3.org/2000/svg" xmlns:xlink="http://www.w3.org/1999/xlink" width="500" zoomAndPan="magnify" viewBox="0 0 375 374.999991" height="500" preserveAspectRatio="xMidYMid meet" version="1.0"><defs><clipPath id="375245cb59"><path d="M 215 22.425781 L 316 22.425781 L 316 352.425781 L 215 352.425781 Z M 215 22.425781 " clip-rule="nonzero"/></clipPath><clipPath id="ba5a017a2f"><path d="M 59.042969 22.425781 L 160 22.425781 L 160 352.425781 L 59.042969 352.425781 Z M 59.042969 22.425781 " clip-rule="nonzero"/></clipPath></defs><g clip-path="url(#375245cb59)"><path fill="#ffffff" d="M 224.179688 59.109375 L 215.007812 59.109375 L 215.007812 22.425781 L 224.179688 22.425781 C 254.570312 22.425781 279.203125 47.0625 279.203125 77.449219 L 279.203125 141.644531 C 279.203125 147.417969 281.921875 152.851562 286.539062 156.316406 L 308.550781 172.824219 C 312.953125 176.125 315.640625 181.234375 315.867188 186.734375 C 316.097656 192.234375 313.84375 197.550781 309.726562 201.207031 L 285.359375 222.859375 C 281.445312 226.339844 279.203125 231.332031 279.203125 236.570312 L 279.203125 297.542969 C 279.203125 327.933594 254.570312 352.566406 224.179688 352.566406 L 215.007812 352.566406 L 215.007812 315.882812 L 224.179688 315.882812 C 234.308594 315.882812 242.519531 307.671875 242.519531 297.542969 L 242.519531 236.570312 C 242.519531 220.851562 249.242188 205.882812 260.992188 195.441406 L 268.578125 188.699219 L 264.53125 185.660156 C 250.675781 175.269531 242.519531 158.960938 242.519531 141.644531 L 242.519531 77.449219 C 242.519531 67.320312 234.308594 59.109375 224.179688 59.109375 Z M 224.179688 59.109375 " fill-opacity="1" fill-rule="evenodd"/></g><g clip-path="url(#ba5a017a2f)"><path fill="#ffffff" d="M 150.816406 59.109375 L 159.984375 59.109375 L 159.984375 22.425781 L 150.816406 22.425781 C 120.425781 22.425781 95.792969 47.0625 95.792969 77.449219 L 95.792969 141.644531 C 95.792969 147.417969 93.074219 152.851562 88.457031 156.316406 L 66.445312 172.824219 C 62.042969 176.125 59.355469 181.234375 59.125 186.734375 C 58.898438 192.234375 61.152344 197.550781 65.265625 201.207031 L 89.632812 222.859375 C 93.550781 226.339844 95.792969 231.332031 95.792969 236.570312 L 95.792969 297.542969 C 95.792969 327.933594 120.425781 352.566406 150.816406 352.566406 L 159.984375 352.566406 L 159.984375 315.882812 L 150.816406 315.882812 C 140.683594 315.882812 132.472656 307.671875 132.472656 297.542969 L 132.472656 236.570312 C 132.472656 220.851562 125.75 205.882812 114 195.441406 L 106.414062 188.699219 L 110.464844 185.660156 C 124.320312 175.269531 132.472656 158.960938 132.472656 141.644531 L 132.472656 77.449219 C 132.472656 67.320312 140.683594 59.109375 150.816406 59.109375 Z M 150.816406 59.109375 " fill-opacity="1" fill-rule="evenodd"/></g></svg>