<svg xmlns="http://www.w3.org/2000/svg" xmlns:xlink="http://www.w3.org/1999/xlink" width="500" zoomAndPan="magnify" viewBox="0 0 375 374.999991" height="500" preserveAspectRatio="xMidYMid meet" version="1.0"><defs><clipPath id="ccac7985d3"><path d="M 281 108 L 324.800781 108 L 324.800781 137 L 281 137 Z M 281 108 " clip-rule="nonzero"/></clipPath><clipPath id="4861361e80"><path d="M 281 151 L 324.800781 151 L 324.800781 296 L 281 296 Z M 281 151 " clip-rule="nonzero"/></clipPath><clipPath id="aa039c28ad"><path d="M 50.300781 50.300781 L 267 50.300781 L 267 324.800781 L 50.300781 324.800781 Z M 50.300781 50.300781 " clip-rule="nonzero"/></clipPath></defs><g clip-path="url(#ccac7985d3)"><path fill="#ffffff" d="M 303.035156 108.070312 C 291.089844 108.070312 281.371094 117.785156 281.371094 129.730469 L 281.371094 136.953125 L 324.695312 136.953125 L 324.695312 129.730469 C 324.695312 117.785156 314.980469 108.070312 303.035156 108.070312 Z M 303.035156 108.070312 " fill-opacity="1" fill-rule="nonzero"/></g><g clip-path="url(#4861361e80)"><path fill="#ffffff" d="M 281.371094 259.707031 C 281.371094 260.828125 281.632812 261.9375 282.132812 262.9375 L 296.574219 291.820312 C 297.796875 294.269531 300.296875 295.8125 303.035156 295.8125 C 305.769531 295.8125 308.269531 294.269531 309.492188 291.820312 L 323.933594 262.9375 C 324.4375 261.9375 324.695312 260.828125 324.695312 259.707031 L 324.695312 151.394531 L 281.371094 151.394531 Z M 281.371094 259.707031 " fill-opacity="1" fill-rule="nonzero"/></g><path fill="#ffffff" d="M 223.605469 54.535156 L 223.605469 93.628906 L 262.699219 93.628906 Z M 223.605469 54.535156 " fill-opacity="1" fill-rule="nonzero"/><g clip-path="url(#aa039c28ad)"><path fill="#ffffff" d="M 209.164062 100.847656 L 209.164062 50.300781 L 64.746094 50.300781 C 56.769531 50.300781 50.300781 56.769531 50.300781 64.746094 L 50.300781 310.253906 C 50.300781 318.230469 56.769531 324.695312 64.746094 324.695312 L 252.488281 324.695312 C 260.464844 324.695312 266.929688 318.230469 266.929688 310.253906 L 266.929688 108.070312 L 216.382812 108.070312 C 212.394531 108.070312 209.164062 104.839844 209.164062 100.847656 Z M 115.289062 79.1875 L 187.5 79.1875 C 191.488281 79.1875 194.71875 82.414062 194.71875 86.40625 C 194.71875 90.398438 191.488281 93.628906 187.5 93.628906 L 115.289062 93.628906 C 111.304688 93.628906 108.070312 90.398438 108.070312 86.40625 C 108.070312 82.414062 111.304688 79.1875 115.289062 79.1875 Z M 115.289062 108.070312 L 187.5 108.070312 C 191.488281 108.070312 194.71875 111.300781 194.71875 115.289062 C 194.71875 119.28125 191.488281 122.511719 187.5 122.511719 L 115.289062 122.511719 C 111.304688 122.511719 108.070312 119.28125 108.070312 115.289062 C 108.070312 111.300781 111.304688 108.070312 115.289062 108.070312 Z M 115.289062 136.953125 L 187.5 136.953125 C 191.488281 136.953125 194.71875 140.183594 194.71875 144.175781 C 194.71875 148.164062 191.488281 151.394531 187.5 151.394531 L 115.289062 151.394531 C 111.304688 151.394531 108.070312 148.164062 108.070312 144.175781 C 108.070312 140.183594 111.304688 136.953125 115.289062 136.953125 Z M 86.40625 151.394531 C 82.417969 151.394531 79.1875 148.160156 79.1875 144.175781 C 79.1875 140.1875 82.417969 136.953125 86.40625 136.953125 C 90.394531 136.953125 93.628906 140.1875 93.628906 144.175781 C 93.628906 148.160156 90.394531 151.394531 86.40625 151.394531 Z M 86.40625 122.511719 C 82.417969 122.511719 79.1875 119.277344 79.1875 115.289062 C 79.1875 111.300781 82.417969 108.070312 86.40625 108.070312 C 90.394531 108.070312 93.628906 111.300781 93.628906 115.289062 C 93.628906 119.277344 90.394531 122.511719 86.40625 122.511719 Z M 86.40625 93.628906 C 82.417969 93.628906 79.1875 90.394531 79.1875 86.40625 C 79.1875 82.417969 82.417969 79.1875 86.40625 79.1875 C 90.394531 79.1875 93.628906 82.417969 93.628906 86.40625 C 93.628906 90.394531 90.394531 93.628906 86.40625 93.628906 Z M 223.355469 216.320312 C 222.859375 218.179688 221.640625 219.761719 219.96875 220.71875 C 216.269531 222.835938 214.0625 226.617188 214.0625 230.824219 C 214.0625 235.035156 216.269531 238.816406 219.96875 240.929688 C 221.640625 241.890625 222.859375 243.46875 223.355469 245.332031 C 223.859375 247.191406 223.589844 249.171875 222.625 250.832031 L 208.050781 275.851562 C 206.050781 279.285156 201.671875 280.441406 198.222656 278.488281 C 194.46875 276.335938 190 276.351562 186.253906 278.515625 C 182.59375 280.636719 180.410156 284.402344 180.410156 288.59375 C 180.410156 292.582031 177.175781 295.8125 173.1875 295.8125 L 144.042969 295.8125 C 140.054688 295.8125 136.824219 292.582031 136.824219 288.59375 C 136.824219 284.402344 134.636719 280.636719 130.976562 278.515625 C 127.234375 276.351562 122.761719 276.335938 119.011719 278.488281 C 115.5625 280.433594 111.183594 279.285156 109.179688 275.851562 L 94.609375 250.832031 C 93.640625 249.171875 93.375 247.191406 93.875 245.332031 C 94.371094 243.46875 95.589844 241.890625 97.261719 240.929688 C 100.960938 238.816406 103.167969 235.035156 103.167969 230.824219 C 103.167969 226.617188 100.960938 222.835938 97.261719 220.71875 C 95.589844 219.761719 94.371094 218.179688 93.875 216.320312 C 93.375 214.457031 93.640625 212.476562 94.609375 210.820312 L 109.179688 185.800781 C 111.183594 182.375 115.570312 181.214844 119.011719 183.164062 C 122.761719 185.3125 127.234375 185.300781 130.976562 183.132812 C 134.636719 181.011719 136.824219 177.246094 136.824219 173.058594 C 136.824219 169.066406 140.054688 165.835938 144.042969 165.835938 L 173.1875 165.835938 C 177.175781 165.835938 180.410156 169.066406 180.410156 173.058594 C 180.410156 177.246094 182.59375 181.011719 186.253906 183.132812 C 190 185.300781 194.46875 185.3125 198.222656 183.164062 C 201.667969 181.210938 206.050781 182.367188 208.050781 185.800781 L 222.625 210.820312 C 223.589844 212.476562 223.859375 214.457031 223.355469 216.320312 Z M 223.355469 216.320312 " fill-opacity="1" fill-rule="nonzero"/></g><path fill="#ffffff" d="M 198.691406 198.421875 C 192.113281 200.113281 185.121094 199.164062 179.011719 195.625 C 173.007812 192.148438 168.785156 186.667969 166.964844 180.277344 L 150.265625 180.277344 C 148.449219 186.667969 144.222656 192.148438 138.21875 195.625 C 132.109375 199.171875 125.113281 200.113281 118.542969 198.421875 L 110.25 212.660156 C 114.945312 217.449219 117.609375 223.863281 117.609375 230.824219 C 117.609375 237.785156 114.945312 244.203125 110.25 248.988281 L 118.542969 263.226562 C 125.113281 261.535156 132.113281 262.488281 138.21875 266.027344 C 144.222656 269.503906 148.449219 274.984375 150.265625 281.371094 L 166.964844 281.371094 C 168.785156 274.984375 173.007812 269.503906 179.011719 266.027344 C 185.128906 262.488281 192.125 261.550781 198.691406 263.226562 L 206.984375 248.988281 C 202.285156 244.203125 199.621094 237.785156 199.621094 230.824219 C 199.621094 223.863281 202.285156 217.449219 206.984375 212.660156 Z M 158.617188 259.707031 C 142.691406 259.707031 129.730469 246.753906 129.730469 230.824219 C 129.730469 214.894531 142.691406 201.941406 158.617188 201.941406 C 174.542969 201.941406 187.5 214.894531 187.5 230.824219 C 187.5 246.753906 174.542969 259.707031 158.617188 259.707031 Z M 158.617188 259.707031 " fill-opacity="1" fill-rule="nonzero"/><path fill="#ffffff" d="M 173.058594 230.824219 C 173.058594 231.773438 172.964844 232.710938 172.78125 233.640625 C 172.59375 234.574219 172.320312 235.476562 171.957031 236.351562 C 171.59375 237.226562 171.152344 238.058594 170.625 238.847656 C 170.097656 239.636719 169.5 240.367188 168.828125 241.035156 C 168.15625 241.707031 167.429688 242.304688 166.640625 242.832031 C 165.851562 243.359375 165.019531 243.804688 164.144531 244.167969 C 163.265625 244.53125 162.363281 244.804688 161.433594 244.988281 C 160.503906 245.175781 159.5625 245.265625 158.617188 245.265625 C 157.667969 245.265625 156.730469 245.175781 155.796875 244.988281 C 154.867188 244.804688 153.964844 244.53125 153.089844 244.167969 C 152.214844 243.804688 151.382812 243.359375 150.59375 242.832031 C 149.804688 242.304688 149.074219 241.707031 148.402344 241.035156 C 147.734375 240.367188 147.136719 239.636719 146.609375 238.847656 C 146.082031 238.058594 145.636719 237.226562 145.273438 236.351562 C 144.910156 235.476562 144.636719 234.574219 144.453125 233.640625 C 144.265625 232.710938 144.175781 231.773438 144.175781 230.824219 C 144.175781 229.875 144.265625 228.9375 144.453125 228.007812 C 144.636719 227.078125 144.910156 226.175781 145.273438 225.296875 C 145.636719 224.421875 146.082031 223.589844 146.609375 222.800781 C 147.136719 222.011719 147.734375 221.285156 148.402344 220.613281 C 149.074219 219.941406 149.804688 219.34375 150.59375 218.816406 C 151.382812 218.289062 152.214844 217.84375 153.089844 217.484375 C 153.964844 217.121094 154.867188 216.847656 155.796875 216.660156 C 156.730469 216.476562 157.667969 216.382812 158.617188 216.382812 C 159.5625 216.382812 160.503906 216.476562 161.433594 216.660156 C 162.363281 216.847656 163.265625 217.121094 164.144531 217.484375 C 165.019531 217.84375 165.851562 218.289062 166.640625 218.816406 C 167.429688 219.34375 168.15625 219.941406 168.828125 220.613281 C 169.5 221.285156 170.097656 222.011719 170.625 222.800781 C 171.152344 223.589844 171.59375 224.421875 171.957031 225.296875 C 172.320312 226.175781 172.59375 227.078125 172.78125 228.007812 C 172.964844 228.9375 173.058594 229.875 173.058594 230.824219 Z M 173.058594 230.824219 " fill-opacity="1" fill-rule="nonzero"/></svg>