<svg xmlns="http://www.w3.org/2000/svg" xmlns:xlink="http://www.w3.org/1999/xlink" width="500" zoomAndPan="magnify" viewBox="0 0 375 374.999991" height="500" preserveAspectRatio="xMidYMid meet" version="1.0"><defs><clipPath id="d7fe1b34e3"><path d="M 30.785156 48 L 344.285156 48 L 344.285156 327 L 30.785156 327 Z M 30.785156 48 " clip-rule="nonzero"/></clipPath></defs><g clip-path="url(#d7fe1b34e3)"><path fill="#00d8ff" d="M 288.433594 138.433594 C 285.097656 137.289062 281.734375 136.230469 278.347656 135.257812 C 278.917969 132.933594 279.441406 130.636719 279.90625 128.382812 C 287.542969 91.339844 282.550781 61.5 265.5 51.675781 C 249.152344 42.257812 222.417969 52.078125 195.417969 75.558594 C 192.753906 77.878906 190.152344 80.265625 187.613281 82.714844 C 185.910156 81.085938 184.179688 79.488281 182.421875 77.921875 C 154.125 52.816406 125.757812 42.234375 108.726562 52.085938 C 92.394531 61.535156 87.558594 89.585938 94.433594 124.691406 C 95.117188 128.167969 95.886719 131.625 96.75 135.0625 C 92.734375 136.203125 88.859375 137.417969 85.152344 138.707031 C 51.972656 150.265625 30.785156 168.382812 30.785156 187.171875 C 30.785156 206.578125 53.53125 226.042969 88.085938 237.847656 C 90.890625 238.800781 93.714844 239.683594 96.558594 240.492188 C 95.636719 244.195312 94.816406 247.921875 94.097656 251.671875 C 87.546875 286.167969 92.664062 313.554688 108.953125 322.945312 C 125.777344 332.640625 154.011719 322.675781 181.507812 298.65625 C 183.738281 296.703125 185.917969 294.695312 188.046875 292.636719 C 190.796875 295.289062 193.621094 297.863281 196.515625 300.359375 C 223.148438 323.257812 249.453125 332.507812 265.726562 323.09375 C 282.535156 313.371094 287.996094 283.945312 280.90625 248.148438 C 280.347656 245.34375 279.71875 242.554688 279.027344 239.78125 C 281.007812 239.191406 282.953125 238.589844 284.851562 237.960938 C 320.777344 226.066406 344.148438 206.835938 344.148438 187.171875 C 344.148438 168.3125 322.277344 150.078125 288.433594 138.433594 Z M 280.644531 225.261719 C 278.929688 225.828125 277.171875 226.375 275.378906 226.90625 C 271.414062 214.359375 266.0625 201.019531 259.511719 187.238281 C 265.761719 173.78125 270.90625 160.609375 274.761719 148.144531 C 277.96875 149.074219 281.078125 150.050781 284.078125 151.082031 C 313.074219 161.058594 330.761719 175.808594 330.761719 187.171875 C 330.761719 199.277344 311.660156 214.992188 280.644531 225.261719 Z M 267.773438 250.746094 C 270.910156 266.574219 271.355469 280.886719 269.277344 292.074219 C 267.414062 302.128906 263.660156 308.832031 259.019531 311.515625 C 249.144531 317.230469 228.023438 309.804688 205.25 290.21875 C 202.554688 287.898438 199.929688 285.503906 197.367188 283.039062 C 206.199219 273.386719 215.023438 262.167969 223.636719 249.710938 C 238.785156 248.367188 253.097656 246.171875 266.074219 243.171875 C 266.703125 245.683594 267.265625 248.210938 267.773438 250.746094 Z M 137.617188 310.53125 C 127.96875 313.933594 120.285156 314.03125 115.640625 311.355469 C 105.757812 305.660156 101.648438 283.667969 107.253906 254.167969 C 107.917969 250.679688 108.679688 247.214844 109.539062 243.769531 C 122.375 246.609375 136.582031 248.648438 151.769531 249.878906 C 160.4375 262.070312 169.519531 273.277344 178.667969 283.089844 C 176.722656 284.96875 174.734375 286.800781 172.699219 288.585938 C 160.539062 299.203125 148.355469 306.738281 137.617188 310.53125 Z M 92.417969 225.1875 C 77.136719 219.96875 64.519531 213.1875 55.871094 205.785156 C 48.097656 199.132812 44.175781 192.527344 44.175781 187.171875 C 44.175781 175.769531 61.183594 161.226562 89.558594 151.339844 C 93 150.140625 96.605469 149.007812 100.34375 147.949219 C 104.265625 160.695312 109.410156 174.019531 115.617188 187.496094 C 109.328125 201.171875 104.113281 214.710938 100.152344 227.609375 C 97.554688 226.863281 94.976562 226.058594 92.417969 225.1875 Z M 107.570312 122.121094 C 101.679688 92.042969 105.59375 69.359375 115.433594 63.664062 C 125.917969 57.597656 149.097656 66.246094 173.535156 87.925781 C 175.125 89.34375 176.695312 90.789062 178.234375 92.261719 C 169.128906 102.03125 160.132812 113.15625 151.539062 125.273438 C 136.800781 126.640625 122.695312 128.832031 109.722656 131.769531 C 108.925781 128.570312 108.207031 125.355469 107.570312 122.121094 Z M 242.742188 155.472656 C 239.679688 150.1875 236.5 144.964844 233.210938 139.8125 C 243.210938 141.078125 252.789062 142.753906 261.785156 144.804688 C 259.085938 153.453125 255.71875 162.496094 251.757812 171.769531 C 248.859375 166.277344 245.855469 160.847656 242.742188 155.472656 Z M 187.617188 101.824219 C 193.792969 108.507812 199.976562 115.96875 206.058594 124.066406 C 193.722656 123.484375 181.363281 123.484375 169.023438 124.0625 C 175.109375 116.039062 181.347656 108.585938 187.617188 101.824219 Z M 132.140625 155.566406 C 129.066406 160.894531 126.117188 166.292969 123.296875 171.757812 C 119.398438 162.519531 116.0625 153.433594 113.339844 144.664062 C 122.28125 142.664062 131.8125 141.03125 141.75 139.789062 C 138.421875 144.972656 135.21875 150.230469 132.140625 155.566406 Z M 142.035156 235.503906 C 131.769531 234.359375 122.09375 232.8125 113.15625 230.867188 C 115.921875 221.9375 119.328125 212.660156 123.3125 203.222656 C 126.144531 208.691406 129.105469 214.09375 132.195312 219.425781 C 135.371094 224.902344 138.65625 230.273438 142.035156 235.503906 Z M 187.988281 273.460938 C 181.644531 266.621094 175.3125 259.054688 169.132812 250.914062 C 175.132812 251.148438 181.25 251.269531 187.46875 251.269531 C 193.855469 251.269531 200.167969 251.125 206.382812 250.851562 C 200.28125 259.136719 194.121094 266.714844 187.988281 273.460938 Z M 251.882812 202.738281 C 256.070312 212.28125 259.601562 221.507812 262.40625 230.285156 C 253.320312 232.359375 243.511719 234.027344 233.175781 235.265625 C 236.484375 230.019531 239.695312 224.707031 242.792969 219.332031 C 245.945312 213.871094 248.976562 208.335938 251.882812 202.738281 Z M 231.199219 212.648438 C 226.453125 220.890625 221.4375 228.972656 216.164062 236.886719 C 206.613281 237.5625 197.042969 237.898438 187.46875 237.894531 C 177.714844 237.894531 168.230469 237.589844 159.097656 237 C 153.6875 229.101562 148.578125 221.003906 143.78125 212.722656 C 139.007812 204.484375 134.546875 196.066406 130.410156 187.492188 C 134.535156 178.914062 138.980469 170.492188 143.742188 162.246094 L 143.738281 162.25 C 148.496094 154.003906 153.566406 145.9375 158.933594 138.078125 C 168.253906 137.371094 177.808594 137.003906 187.46875 137.003906 C 197.171875 137.003906 206.738281 137.375 216.054688 138.085938 C 221.371094 145.9375 226.40625 153.972656 231.152344 162.175781 C 235.929688 170.402344 240.433594 178.78125 244.664062 187.300781 C 240.476562 195.90625 235.988281 204.363281 231.199219 212.648438 Z M 258.8125 63.265625 C 269.304688 69.3125 273.386719 93.699219 266.792969 125.679688 C 266.375 127.722656 265.902344 129.800781 265.386719 131.90625 C 252.386719 128.90625 238.265625 126.675781 223.488281 125.292969 C 214.875 113.039062 205.953125 101.898438 196.996094 92.253906 C 199.34375 89.992188 201.75 87.792969 204.203125 85.648438 C 227.339844 65.53125 248.960938 57.585938 258.8125 63.265625 Z M 187.46875 159.207031 C 202.921875 159.207031 215.449219 171.730469 215.449219 187.171875 C 215.449219 202.613281 202.921875 215.132812 187.46875 215.132812 C 172.015625 215.132812 159.484375 202.613281 159.484375 187.171875 C 159.484375 171.730469 172.015625 159.207031 187.46875 159.207031 Z M 187.46875 159.207031 " fill-opacity="1" fill-rule="nonzero"/></g></svg>