<svg xmlns="http://www.w3.org/2000/svg" xmlns:xlink="http://www.w3.org/1999/xlink" width="500" zoomAndPan="magnify" viewBox="0 0 375 374.999991" height="500" preserveAspectRatio="xMidYMid meet" version="1.0"><defs><clipPath id="d8f8813059"><path d="M 61 21.957031 L 320 21.957031 L 320 352.707031 L 61 352.707031 Z M 61 21.957031 " clip-rule="nonzero"/></clipPath></defs><g clip-path="url(#d8f8813059)"><path fill="#ffffff" d="M 229.300781 289.738281 C 229.300781 293.113281 228.070312 296.230469 225.925781 298.566406 L 111.15625 298.566406 C 103.5625 290.386719 109.859375 276.105469 121.152344 276.367188 C 121.152344 276.367188 215.929688 276.367188 215.929688 276.367188 C 223.328125 276.367188 229.300781 282.335938 229.300781 289.738281 Z M 111.15625 307.589844 C 103.5625 315.769531 109.859375 330.050781 121.152344 329.789062 L 215.929688 329.789062 C 227.222656 330.050781 233.519531 315.703125 225.859375 307.589844 Z M 148.871094 353.03125 L 188.277344 353.03125 C 196.714844 353.03125 203.660156 346.863281 205.023438 338.8125 L 132.125 338.8125 C 133.488281 346.863281 140.433594 353.03125 148.871094 353.03125 Z M 234.105469 220.085938 C 220.214844 232.160156 211.710938 249.167969 209.957031 267.34375 L 181.199219 267.34375 L 181.199219 85.582031 C 181.199219 81.75 184.445312 78.699219 188.277344 79.023438 C 259.292969 85.320312 287.011719 174.449219 234.105469 220.085938 Z M 246.699219 159.324219 C 246.894531 132.058594 228.976562 106.484375 203.140625 97.589844 C 200.480469 96.617188 197.429688 98.042969 196.519531 100.769531 C 195.546875 103.496094 196.910156 106.417969 199.636719 107.390625 C 221.316406 114.859375 236.441406 136.34375 236.246094 159.324219 C 236.378906 166.140625 246.632812 166.140625 246.699219 159.324219 Z M 114.597656 236.441406 C 117.972656 232.9375 125.632812 228.394531 128.488281 234.820312 C 129.527344 237.480469 128.164062 240.53125 125.4375 241.570312 C 113.753906 246.894531 119.789062 262.667969 127.0625 267.34375 L 150.367188 267.34375 C 155.363281 263.707031 158.609375 257.863281 158.609375 251.242188 L 158.609375 104.082031 C 158.480469 82.855469 129.398438 76.621094 120.699219 95.902344 C 127.710938 97.265625 148.417969 114.921875 133.550781 118.234375 C 128.617188 118.039062 127.515625 111.480469 123.621094 109.273438 C 104.082031 93.824219 76.296875 114.988281 84.738281 137.511719 C 93.566406 135.890625 105.183594 140.238281 111.09375 147.703125 C 114.011719 150.886719 111.351562 156.402344 107.132812 156.273438 C 105.640625 156.273438 104.210938 155.625 103.171875 154.390625 C 101.808594 152.769531 98.757812 149.78125 93.953125 148.417969 C 90.578125 147.316406 85.90625 147.574219 83.179688 148.484375 C 56.238281 156.339844 54.03125 194.636719 79.738281 205.609375 C 83.242188 199.960938 103.757812 184.316406 107.457031 195.285156 C 108.171875 198.078125 106.417969 200.933594 103.691406 201.582031 C 74.089844 208.917969 78.179688 250.464844 108.691406 251.308594 C 108.753906 246.246094 110.378906 240.664062 114.597656 236.441406 Z M 251.113281 95.382812 C 252.476562 95.382812 253.773438 94.863281 254.8125 93.890625 L 278.898438 69.804688 C 283.636719 64.875 276.429688 57.667969 271.5625 62.472656 C 271.5625 62.472656 247.476562 86.554688 247.476562 86.554688 C 244.101562 89.605469 246.632812 95.511719 251.113281 95.382812 Z M 314.082031 154.84375 L 280.066406 154.84375 C 273.183594 154.976562 273.25 165.167969 280.066406 165.230469 L 314.082031 165.230469 C 320.960938 165.167969 320.898438 154.976562 314.082031 154.84375 Z M 254.75 226.316406 C 249.816406 221.578125 242.609375 228.78125 247.414062 233.652344 L 271.496094 257.734375 C 276.363281 262.539062 283.636719 255.203125 278.832031 250.398438 C 278.832031 250.335938 254.75 226.316406 254.75 226.316406 Z M 181.199219 66.429688 C 184.054688 66.429688 186.394531 64.09375 186.394531 61.238281 L 186.394531 27.15625 C 186.394531 24.300781 184.054688 21.964844 181.199219 21.964844 C 178.34375 21.964844 176.007812 24.300781 176.007812 27.15625 L 176.007812 61.171875 C 176.007812 64.09375 178.34375 66.429688 181.199219 66.429688 Z M 181.199219 66.429688 " fill-opacity="1" fill-rule="nonzero"/></g></svg>