<svg xmlns="http://www.w3.org/2000/svg" xmlns:xlink="http://www.w3.org/1999/xlink" width="500" zoomAndPan="magnify" viewBox="0 0 375 374.999991" height="500" preserveAspectRatio="xMidYMid meet" version="1.0"><defs><clipPath id="8caf06f5b3"><path d="M 24.796875 52 L 216 52 L 216 261 L 24.796875 261 Z M 24.796875 52 " clip-rule="nonzero"/></clipPath><clipPath id="8c58600c18"><path d="M 24.796875 24.796875 L 216 24.796875 L 216 81 L 24.796875 81 Z M 24.796875 24.796875 " clip-rule="nonzero"/></clipPath><clipPath id="54d2a8bde6"><path d="M 24.796875 97 L 216 97 L 216 149 L 24.796875 149 Z M 24.796875 97 " clip-rule="nonzero"/></clipPath><clipPath id="5064e01aae"><path d="M 24.796875 165 L 168 165 L 168 216 L 24.796875 216 Z M 24.796875 165 " clip-rule="nonzero"/></clipPath><clipPath id="2f0550da78"><path d="M 148 148 L 350.296875 148 L 350.296875 350.296875 L 148 350.296875 Z M 148 148 " clip-rule="nonzero"/></clipPath></defs><g clip-path="url(#8caf06f5b3)"><path fill="#4184a9" d="M 24.796875 52.859375 L 24.796875 232.445312 C 24.796875 247.945312 67.503906 260.503906 120.203125 260.503906 C 130.132812 260.503906 139.734375 260.042969 148.769531 259.277344 L 215.609375 154.050781 L 215.609375 52.859375 L 24.796875 52.859375 " fill-opacity="1" fill-rule="nonzero"/></g><g clip-path="url(#8c58600c18)"><path fill="#35718a" d="M 215.609375 52.859375 C 215.609375 68.359375 172.90625 80.917969 120.203125 80.917969 C 67.523438 80.917969 24.796875 68.359375 24.796875 52.859375 C 24.796875 37.359375 67.523438 24.796875 120.203125 24.796875 C 172.90625 24.796875 215.609375 37.359375 215.609375 52.859375 " fill-opacity="1" fill-rule="nonzero"/></g><g clip-path="url(#54d2a8bde6)"><path fill="#6de08e" d="M 24.796875 120.203125 C 24.796875 135.703125 67.523438 148.265625 120.203125 148.265625 C 172.90625 148.265625 215.609375 135.703125 215.609375 120.203125 L 215.609375 97.753906 C 215.609375 113.253906 172.90625 125.816406 120.203125 125.816406 C 67.523438 125.816406 24.796875 113.253906 24.796875 97.753906 L 24.796875 120.203125 " fill-opacity="1" fill-rule="nonzero"/></g><g clip-path="url(#5064e01aae)"><path fill="#6de08e" d="M 154.730469 213.746094 C 143.988281 214.929688 132.371094 215.609375 120.203125 215.609375 C 67.503906 215.609375 24.796875 203.046875 24.796875 187.546875 L 24.796875 165.101562 C 24.796875 180.597656 67.503906 193.160156 120.203125 193.160156 C 137.585938 193.160156 153.941406 191.824219 167.972656 189.410156 L 154.730469 213.746094 " fill-opacity="1" fill-rule="nonzero"/></g><g clip-path="url(#2f0550da78)"><path fill="#35718a" d="M 350.296875 249.28125 C 350.296875 305.074219 305.074219 350.296875 249.28125 350.296875 C 193.488281 350.296875 148.265625 305.074219 148.265625 249.28125 C 148.265625 193.488281 193.488281 148.265625 249.28125 148.265625 C 305.074219 148.265625 350.296875 193.488281 350.296875 249.28125 " fill-opacity="1" fill-rule="nonzero"/></g><path fill="#ffffff" d="M 198.773438 221.222656 C 204.953125 221.222656 209.996094 226.261719 209.996094 232.445312 C 209.996094 235.535156 212.519531 238.058594 215.609375 238.058594 C 218.699219 238.058594 221.222656 235.535156 221.222656 232.445312 C 221.222656 220.058594 211.160156 209.996094 198.773438 209.996094 C 186.386719 209.996094 176.324219 220.058594 176.324219 232.445312 C 176.324219 244.832031 186.386719 254.894531 198.773438 254.894531 C 204.953125 254.894531 209.996094 259.933594 209.996094 266.117188 C 209.996094 272.300781 204.953125 277.339844 198.773438 277.339844 C 192.589844 277.339844 187.546875 272.300781 187.546875 266.117188 C 187.546875 263.027344 185.027344 260.503906 181.9375 260.503906 C 178.84375 260.503906 176.324219 263.027344 176.324219 266.117188 C 176.324219 278.503906 186.386719 288.566406 198.773438 288.566406 C 211.160156 288.566406 221.222656 278.503906 221.222656 266.117188 C 221.222656 253.730469 211.160156 243.667969 198.773438 243.667969 C 192.589844 243.667969 187.546875 238.628906 187.546875 232.445312 C 187.546875 226.261719 192.589844 221.222656 198.773438 221.222656 " fill-opacity="1" fill-rule="nonzero"/><path fill="#ffffff" d="M 265.175781 263.003906 C 263.464844 260.417969 259.980469 259.738281 257.390625 261.449219 C 254.804688 263.15625 254.105469 266.644531 255.835938 269.230469 L 260.285156 275.894531 C 258.664062 276.792969 256.84375 277.339844 254.894531 277.339844 C 248.710938 277.339844 243.667969 272.300781 243.667969 266.117188 L 243.667969 232.445312 C 243.667969 226.261719 248.710938 221.222656 254.894531 221.222656 C 261.074219 221.222656 266.117188 226.261719 266.117188 232.445312 L 266.117188 264.429688 Z M 254.894531 209.996094 C 242.507812 209.996094 232.445312 220.058594 232.445312 232.445312 L 232.445312 266.117188 C 232.445312 278.503906 242.507812 288.566406 254.894531 288.566406 C 259.167969 288.566406 263.113281 287.316406 266.511719 285.234375 L 267.058594 286.066406 C 268.132812 287.6875 269.910156 288.566406 271.730469 288.566406 C 272.804688 288.566406 273.878906 288.257812 274.84375 287.621094 C 277.429688 285.914062 278.128906 282.425781 276.398438 279.839844 L 274.449219 276.925781 C 276.222656 273.703125 277.339844 270.0625 277.339844 266.117188 L 277.339844 232.445312 C 277.339844 220.058594 267.277344 209.996094 254.894531 209.996094 " fill-opacity="1" fill-rule="nonzero"/><path fill="#ffffff" d="M 316.625 277.339844 L 299.789062 277.339844 L 299.789062 215.609375 C 299.789062 212.519531 297.269531 209.996094 294.175781 209.996094 C 291.085938 209.996094 288.566406 212.519531 288.566406 215.609375 L 288.566406 282.953125 C 288.566406 286.042969 291.085938 288.566406 294.175781 288.566406 L 316.625 288.566406 C 319.71875 288.566406 322.238281 286.042969 322.238281 282.953125 C 322.238281 279.863281 319.71875 277.339844 316.625 277.339844 " fill-opacity="1" fill-rule="nonzero"/></svg>